<svg xmlns="http://www.w3.org/2000/svg" version="1.1" width="1161px" height="821px" viewBox="0 0 1161 821">
	<style>
		line{
			stroke: rgb(0, 0, 0);
			stroke-linecap: round;
			stroke-width: 3;
			fill: none;
		}
		text{
			font-family: "Noto Sans CJK JP", sans-serif;
			text-anchor: middle;
			font-size: 20px;
		}
		.day-of-week.day-of-week{
			font-size: 16px;
		}
		.sunday.sunday, .holiday.holiday.holiday{
			fill: rgb(255, 51, 51);
		}
		.saturday.saturday{
			fill: rgb(51, 51, 255);
		}
		.font-40{
			font-size: 40px;
		}
		.font-30{
			font-size: 30px;
		}
		.month.month{
			font-size: 24px;
		}
		@page{
			size: A4 landscape;
		}
		@media print{
			svg{
				d3_gin: 0;
				break-before: avoid;
				break-inside: avoid;
				break-after: avoid;
			}
		}
	</style>
	<defs>
		<g id="day_of_week">
			<text x="0" y="33" class="day-of-week sunday">日</text>
			<text x="38" y="33" class="day-of-week">月</text>
			<text x="76" y="33" class="day-of-week">火</text>
			<text x="114" y="33" class="day-of-week">水</text>
			<text x="152" y="33" class="day-of-week">木</text>
			<text x="190" y="33" class="day-of-week">金</text>
			<text x="228" y="33" class="day-of-week saturday">土</text>
		</g>
	</defs>
	
	<g id="title">
		<text id="titleWestern" x="513" y="42" class="font-40"></text>
		<text id="titleJapanese" x="643" y="39" class="font-30"></text>
		<line x1="20" x2="1141" y1="55" y2="55"/>
	</g>

	<g id="jan" transform="translate(50 87)">
		<text x="115" y="0" class="month">1</text>
		<use href="#day_of_week" />
		<g class="dates">
			<text id="d1_1" class="day sunday" x="0" y="64"></text>
			<text id="d1_2" class="day" x="38" y="64"></text>
			<text id="d1_3" class="day" x="76" y="64"></text>
			<text id="d1_4" class="day" x="114" y="64"></text>
			<text id="d1_5" class="day" x="152" y="64"></text>
			<text id="d1_6" class="day" x="190" y="64"></text>
			<text id="d1_7" class="day saturday" x="228" y="64"></text>
			<text id="d1_8" class="day sunday" x="0" y="94"></text>
			<text id="d1_9" class="day" x="38" y="94"></text>
			<text id="d1_10" class="day" x="76" y="94"></text>
			<text id="d1_11" class="day" x="114" y="94"></text>
			<text id="d1_12" class="day" x="152" y="94"></text>
			<text id="d1_13" class="day" x="190" y="94"></text>
			<text id="d1_14" class="day saturday" x="228" y="94"></text>
			<text id="d1_15" class="day sunday" x="0" y="124"></text>
			<text id="d1_16" class="day" x="38" y="124"></text>
			<text id="d1_17" class="day" x="76" y="124"></text>
			<text id="d1_18" class="day" x="114" y="124"></text>
			<text id="d1_19" class="day" x="152" y="124"></text>
			<text id="d1_20" class="day" x="190" y="124"></text>
			<text id="d1_21" class="day saturday" x="228" y="124"></text>
			<text id="d1_22" class="day sunday" x="0" y="154"></text>
			<text id="d1_23" class="day" x="38" y="154"></text>
			<text id="d1_24" class="day" x="76" y="154"></text>
			<text id="d1_25" class="day" x="114" y="154"></text>
			<text id="d1_26" class="day" x="152" y="154"></text>
			<text id="d1_27" class="day" x="190" y="154"></text>
			<text id="d1_28" class="day saturday" x="228" y="154"></text>
			<text id="d1_29" class="day sunday" x="0" y="184"></text>
			<text id="d1_30" class="day" x="38" y="184"></text>
			<text id="d1_31" class="day" x="76" y="184"></text>
			<text id="d1_32" class="day" x="114" y="184"></text>
			<text id="d1_33" class="day" x="152" y="184"></text>
			<text id="d1_34" class="day" x="190" y="184"></text>
			<text id="d1_35" class="day saturday" x="228" y="184"></text>
			<text id="d1_36" class="day sunday" x="0" y="214"></text>
			<text id="d1_37" class="day" x="38" y="214"></text>
			<text id="d1_38" class="day" x="76" y="214"></text>
			<text id="d1_39" class="day" x="114" y="214"></text>
			<text id="d1_40" class="day" x="152" y="214"></text>
			<text id="d1_41" class="day" x="190" y="214"></text>
			<text id="d1_42" class="day saturday" x="228" y="214"></text>
		</g>
	</g>
	<g id="feb" transform="translate(330 87)">
		<text x="115" y="0" class="month">2</text>
		<use href="#day_of_week" />
		<g class="dates">
			<text id="d2_1" class="day sunday" x="0" y="64"></text>
			<text id="d2_2" class="day" x="38" y="64"></text>
			<text id="d2_3" class="day" x="76" y="64"></text>
			<text id="d2_4" class="day" x="114" y="64"></text>
			<text id="d2_5" class="day" x="152" y="64"></text>
			<text id="d2_6" class="day" x="190" y="64"></text>
			<text id="d2_7" class="day saturday" x="228" y="64"></text>
			<text id="d2_8" class="day sunday" x="0" y="94"></text>
			<text id="d2_9" class="day" x="38" y="94"></text>
			<text id="d2_10" class="day" x="76" y="94"></text>
			<text id="d2_11" class="day" x="114" y="94"></text>
			<text id="d2_12" class="day" x="152" y="94"></text>
			<text id="d2_13" class="day" x="190" y="94"></text>
			<text id="d2_14" class="day saturday" x="228" y="94"></text>
			<text id="d2_15" class="day sunday" x="0" y="124"></text>
			<text id="d2_16" class="day" x="38" y="124"></text>
			<text id="d2_17" class="day" x="76" y="124"></text>
			<text id="d2_18" class="day" x="114" y="124"></text>
			<text id="d2_19" class="day" x="152" y="124"></text>
			<text id="d2_20" class="day" x="190" y="124"></text>
			<text id="d2_21" class="day saturday" x="228" y="124"></text>
			<text id="d2_22" class="day sunday" x="0" y="154"></text>
			<text id="d2_23" class="day" x="38" y="154"></text>
			<text id="d2_24" class="day" x="76" y="154"></text>
			<text id="d2_25" class="day" x="114" y="154"></text>
			<text id="d2_26" class="day" x="152" y="154"></text>
			<text id="d2_27" class="day" x="190" y="154"></text>
			<text id="d2_28" class="day saturday" x="228" y="154"></text>
			<text id="d2_29" class="day sunday" x="0" y="184"></text>
			<text id="d2_30" class="day" x="38" y="184"></text>
			<text id="d2_31" class="day" x="76" y="184"></text>
			<text id="d2_32" class="day" x="114" y="184"></text>
			<text id="d2_33" class="day" x="152" y="184"></text>
			<text id="d2_34" class="day" x="190" y="184"></text>
			<text id="d2_35" class="day saturday" x="228" y="184"></text>
			<text id="d2_36" class="day sunday" x="0" y="214"></text>
			<text id="d2_37" class="day" x="38" y="214"></text>
			<text id="d2_38" class="day" x="76" y="214"></text>
			<text id="d2_39" class="day" x="114" y="214"></text>
			<text id="d2_40" class="day" x="152" y="214"></text>
			<text id="d2_41" class="day" x="190" y="214"></text>
			<text id="d2_42" class="day saturday" x="228" y="214"></text>
		</g>
	</g>
	<g id="mar" transform="translate(610 87)">
		<text x="115" y="0" class="month">3</text>
		<use href="#day_of_week" />
		<g class="dates">
			<text id="d3_1" class="day sunday" x="0" y="64"></text>
			<text id="d3_2" class="day" x="38" y="64"></text>
			<text id="d3_3" class="day" x="76" y="64"></text>
			<text id="d3_4" class="day" x="114" y="64"></text>
			<text id="d3_5" class="day" x="152" y="64"></text>
			<text id="d3_6" class="day" x="190" y="64"></text>
			<text id="d3_7" class="day saturday" x="228" y="64"></text>
			<text id="d3_8" class="day sunday" x="0" y="94"></text>
			<text id="d3_9" class="day" x="38" y="94"></text>
			<text id="d3_10" class="day" x="76" y="94"></text>
			<text id="d3_11" class="day" x="114" y="94"></text>
			<text id="d3_12" class="day" x="152" y="94"></text>
			<text id="d3_13" class="day" x="190" y="94"></text>
			<text id="d3_14" class="day saturday" x="228" y="94"></text>
			<text id="d3_15" class="day sunday" x="0" y="124"></text>
			<text id="d3_16" class="day" x="38" y="124"></text>
			<text id="d3_17" class="day" x="76" y="124"></text>
			<text id="d3_18" class="day" x="114" y="124"></text>
			<text id="d3_19" class="day" x="152" y="124"></text>
			<text id="d3_20" class="day" x="190" y="124"></text>
			<text id="d3_21" class="day saturday" x="228" y="124"></text>
			<text id="d3_22" class="day sunday" x="0" y="154"></text>
			<text id="d3_23" class="day" x="38" y="154"></text>
			<text id="d3_24" class="day" x="76" y="154"></text>
			<text id="d3_25" class="day" x="114" y="154"></text>
			<text id="d3_26" class="day" x="152" y="154"></text>
			<text id="d3_27" class="day" x="190" y="154"></text>
			<text id="d3_28" class="day saturday" x="228" y="154"></text>
			<text id="d3_29" class="day sunday" x="0" y="184"></text>
			<text id="d3_30" class="day" x="38" y="184"></text>
			<text id="d3_31" class="day" x="76" y="184"></text>
			<text id="d3_32" class="day" x="114" y="184"></text>
			<text id="d3_33" class="day" x="152" y="184"></text>
			<text id="d3_34" class="day" x="190" y="184"></text>
			<text id="d3_35" class="day saturday" x="228" y="184"></text>
			<text id="d3_36" class="day sunday" x="0" y="214"></text>
			<text id="d3_37" class="day" x="38" y="214"></text>
			<text id="d3_38" class="day" x="76" y="214"></text>
			<text id="d3_39" class="day" x="114" y="214"></text>
			<text id="d3_40" class="day" x="152" y="214"></text>
			<text id="d3_41" class="day" x="190" y="214"></text>
			<text id="d3_42" class="day saturday" x="228" y="214"></text>
		</g>
	</g>
	<g id="apr" transform="translate(890 87)">
		<text x="115" y="0" class="month">4</text>
		<use href="#day_of_week" />
		<g class="dates">
			<text id="d4_1" class="day sunday" x="0" y="64"></text>
			<text id="d4_2" class="day" x="38" y="64"></text>
			<text id="d4_3" class="day" x="76" y="64"></text>
			<text id="d4_4" class="day" x="114" y="64"></text>
			<text id="d4_5" class="day" x="152" y="64"></text>
			<text id="d4_6" class="day" x="190" y="64"></text>
			<text id="d4_7" class="day saturday" x="228" y="64"></text>
			<text id="d4_8" class="day sunday" x="0" y="94"></text>
			<text id="d4_9" class="day" x="38" y="94"></text>
			<text id="d4_10" class="day" x="76" y="94"></text>
			<text id="d4_11" class="day" x="114" y="94"></text>
			<text id="d4_12" class="day" x="152" y="94"></text>
			<text id="d4_13" class="day" x="190" y="94"></text>
			<text id="d4_14" class="day saturday" x="228" y="94"></text>
			<text id="d4_15" class="day sunday" x="0" y="124"></text>
			<text id="d4_16" class="day" x="38" y="124"></text>
			<text id="d4_17" class="day" x="76" y="124"></text>
			<text id="d4_18" class="day" x="114" y="124"></text>
			<text id="d4_19" class="day" x="152" y="124"></text>
			<text id="d4_20" class="day" x="190" y="124"></text>
			<text id="d4_21" class="day saturday" x="228" y="124"></text>
			<text id="d4_22" class="day sunday" x="0" y="154"></text>
			<text id="d4_23" class="day" x="38" y="154"></text>
			<text id="d4_24" class="day" x="76" y="154"></text>
			<text id="d4_25" class="day" x="114" y="154"></text>
			<text id="d4_26" class="day" x="152" y="154"></text>
			<text id="d4_27" class="day" x="190" y="154"></text>
			<text id="d4_28" class="day saturday" x="228" y="154"></text>
			<text id="d4_29" class="day sunday" x="0" y="184"></text>
			<text id="d4_30" class="day" x="38" y="184"></text>
			<text id="d4_31" class="day" x="76" y="184"></text>
			<text id="d4_32" class="day" x="114" y="184"></text>
			<text id="d4_33" class="day" x="152" y="184"></text>
			<text id="d4_34" class="day" x="190" y="184"></text>
			<text id="d4_35" class="day saturday" x="228" y="184"></text>
			<text id="d4_36" class="day sunday" x="0" y="214"></text>
			<text id="d4_37" class="day" x="38" y="214"></text>
			<text id="d4_38" class="day" x="76" y="214"></text>
			<text id="d4_39" class="day" x="114" y="214"></text>
			<text id="d4_40" class="day" x="152" y="214"></text>
			<text id="d4_41" class="day" x="190" y="214"></text>
			<text id="d4_42" class="day saturday" x="228" y="214"></text>
		</g>
	</g>
	<g id="may" transform="translate(50 337)">
		<text x="115" y="0" class="month">5</text>
		<use href="#day_of_week" />
		<g class="dates">
			<text id="d5_1" class="day sunday" x="0" y="64"></text>
			<text id="d5_2" class="day" x="38" y="64"></text>
			<text id="d5_3" class="day" x="76" y="64"></text>
			<text id="d5_4" class="day" x="114" y="64"></text>
			<text id="d5_5" class="day" x="152" y="64"></text>
			<text id="d5_6" class="day" x="190" y="64"></text>
			<text id="d5_7" class="day saturday" x="228" y="64"></text>
			<text id="d5_8" class="day sunday" x="0" y="94"></text>
			<text id="d5_9" class="day" x="38" y="94"></text>
			<text id="d5_10" class="day" x="76" y="94"></text>
			<text id="d5_11" class="day" x="114" y="94"></text>
			<text id="d5_12" class="day" x="152" y="94"></text>
			<text id="d5_13" class="day" x="190" y="94"></text>
			<text id="d5_14" class="day saturday" x="228" y="94"></text>
			<text id="d5_15" class="day sunday" x="0" y="124"></text>
			<text id="d5_16" class="day" x="38" y="124"></text>
			<text id="d5_17" class="day" x="76" y="124"></text>
			<text id="d5_18" class="day" x="114" y="124"></text>
			<text id="d5_19" class="day" x="152" y="124"></text>
			<text id="d5_20" class="day" x="190" y="124"></text>
			<text id="d5_21" class="day saturday" x="228" y="124"></text>
			<text id="d5_22" class="day sunday" x="0" y="154"></text>
			<text id="d5_23" class="day" x="38" y="154"></text>
			<text id="d5_24" class="day" x="76" y="154"></text>
			<text id="d5_25" class="day" x="114" y="154"></text>
			<text id="d5_26" class="day" x="152" y="154"></text>
			<text id="d5_27" class="day" x="190" y="154"></text>
			<text id="d5_28" class="day saturday" x="228" y="154"></text>
			<text id="d5_29" class="day sunday" x="0" y="184"></text>
			<text id="d5_30" class="day" x="38" y="184"></text>
			<text id="d5_31" class="day" x="76" y="184"></text>
			<text id="d5_32" class="day" x="114" y="184"></text>
			<text id="d5_33" class="day" x="152" y="184"></text>
			<text id="d5_34" class="day" x="190" y="184"></text>
			<text id="d5_35" class="day saturday" x="228" y="184"></text>
			<text id="d5_36" class="day sunday" x="0" y="214"></text>
			<text id="d5_37" class="day" x="38" y="214"></text>
			<text id="d5_38" class="day" x="76" y="214"></text>
			<text id="d5_39" class="day" x="114" y="214"></text>
			<text id="d5_40" class="day" x="152" y="214"></text>
			<text id="d5_41" class="day" x="190" y="214"></text>
			<text id="d5_42" class="day saturday" x="228" y="214"></text>
		</g>
	</g>
	<g id="jun" transform="translate(330 337)">
		<text x="115" y="0" class="month">6</text>
		<use href="#day_of_week" />
		<g class="dates">
			<text id="d6_1" class="day sunday" x="0" y="64"></text>
			<text id="d6_2" class="day" x="38" y="64"></text>
			<text id="d6_3" class="day" x="76" y="64"></text>
			<text id="d6_4" class="day" x="114" y="64"></text>
			<text id="d6_5" class="day" x="152" y="64"></text>
			<text id="d6_6" class="day" x="190" y="64"></text>
			<text id="d6_7" class="day saturday" x="228" y="64"></text>
			<text id="d6_8" class="day sunday" x="0" y="94"></text>
			<text id="d6_9" class="day" x="38" y="94"></text>
			<text id="d6_10" class="day" x="76" y="94"></text>
			<text id="d6_11" class="day" x="114" y="94"></text>
			<text id="d6_12" class="day" x="152" y="94"></text>
			<text id="d6_13" class="day" x="190" y="94"></text>
			<text id="d6_14" class="day saturday" x="228" y="94"></text>
			<text id="d6_15" class="day sunday" x="0" y="124"></text>
			<text id="d6_16" class="day" x="38" y="124"></text>
			<text id="d6_17" class="day" x="76" y="124"></text>
			<text id="d6_18" class="day" x="114" y="124"></text>
			<text id="d6_19" class="day" x="152" y="124"></text>
			<text id="d6_20" class="day" x="190" y="124"></text>
			<text id="d6_21" class="day saturday" x="228" y="124"></text>
			<text id="d6_22" class="day sunday" x="0" y="154"></text>
			<text id="d6_23" class="day" x="38" y="154"></text>
			<text id="d6_24" class="day" x="76" y="154"></text>
			<text id="d6_25" class="day" x="114" y="154"></text>
			<text id="d6_26" class="day" x="152" y="154"></text>
			<text id="d6_27" class="day" x="190" y="154"></text>
			<text id="d6_28" class="day saturday" x="228" y="154"></text>
			<text id="d6_29" class="day sunday" x="0" y="184"></text>
			<text id="d6_30" class="day" x="38" y="184"></text>
			<text id="d6_31" class="day" x="76" y="184"></text>
			<text id="d6_32" class="day" x="114" y="184"></text>
			<text id="d6_33" class="day" x="152" y="184"></text>
			<text id="d6_34" class="day" x="190" y="184"></text>
			<text id="d6_35" class="day saturday" x="228" y="184"></text>
			<text id="d6_36" class="day sunday" x="0" y="214"></text>
			<text id="d6_37" class="day" x="38" y="214"></text>
			<text id="d6_38" class="day" x="76" y="214"></text>
			<text id="d6_39" class="day" x="114" y="214"></text>
			<text id="d6_40" class="day" x="152" y="214"></text>
			<text id="d6_41" class="day" x="190" y="214"></text>
			<text id="d6_42" class="day saturday" x="228" y="214"></text>
		</g>
	</g>
	<g id="jul" transform="translate(610 337)">
		<text x="115" y="0" class="month">7</text>
		<use href="#day_of_week" />
		<g class="dates">
			<text id="d7_1" class="day sunday" x="0" y="64"></text>
			<text id="d7_2" class="day" x="38" y="64"></text>
			<text id="d7_3" class="day" x="76" y="64"></text>
			<text id="d7_4" class="day" x="114" y="64"></text>
			<text id="d7_5" class="day" x="152" y="64"></text>
			<text id="d7_6" class="day" x="190" y="64"></text>
			<text id="d7_7" class="day saturday" x="228" y="64"></text>
			<text id="d7_8" class="day sunday" x="0" y="94"></text>
			<text id="d7_9" class="day" x="38" y="94"></text>
			<text id="d7_10" class="day" x="76" y="94"></text>
			<text id="d7_11" class="day" x="114" y="94"></text>
			<text id="d7_12" class="day" x="152" y="94"></text>
			<text id="d7_13" class="day" x="190" y="94"></text>
			<text id="d7_14" class="day saturday" x="228" y="94"></text>
			<text id="d7_15" class="day sunday" x="0" y="124"></text>
			<text id="d7_16" class="day" x="38" y="124"></text>
			<text id="d7_17" class="day" x="76" y="124"></text>
			<text id="d7_18" class="day" x="114" y="124"></text>
			<text id="d7_19" class="day" x="152" y="124"></text>
			<text id="d7_20" class="day" x="190" y="124"></text>
			<text id="d7_21" class="day saturday" x="228" y="124"></text>
			<text id="d7_22" class="day sunday" x="0" y="154"></text>
			<text id="d7_23" class="day" x="38" y="154"></text>
			<text id="d7_24" class="day" x="76" y="154"></text>
			<text id="d7_25" class="day" x="114" y="154"></text>
			<text id="d7_26" class="day" x="152" y="154"></text>
			<text id="d7_27" class="day" x="190" y="154"></text>
			<text id="d7_28" class="day saturday" x="228" y="154"></text>
			<text id="d7_29" class="day sunday" x="0" y="184"></text>
			<text id="d7_30" class="day" x="38" y="184"></text>
			<text id="d7_31" class="day" x="76" y="184"></text>
			<text id="d7_32" class="day" x="114" y="184"></text>
			<text id="d7_33" class="day" x="152" y="184"></text>
			<text id="d7_34" class="day" x="190" y="184"></text>
			<text id="d7_35" class="day saturday" x="228" y="184"></text>
			<text id="d7_36" class="day sunday" x="0" y="214"></text>
			<text id="d7_37" class="day" x="38" y="214"></text>
			<text id="d7_38" class="day" x="76" y="214"></text>
			<text id="d7_39" class="day" x="114" y="214"></text>
			<text id="d7_40" class="day" x="152" y="214"></text>
			<text id="d7_41" class="day" x="190" y="214"></text>
			<text id="d7_42" class="day saturday" x="228" y="214"></text>
		</g>
	</g>
	<g id="aug" transform="translate(890 337)">
		<text x="115" y="0" class="month">8</text>
		<use href="#day_of_week" />
		<g class="dates">
			<text id="d8_1" class="day sunday" x="0" y="64"></text>
			<text id="d8_2" class="day" x="38" y="64"></text>
			<text id="d8_3" class="day" x="76" y="64"></text>
			<text id="d8_4" class="day" x="114" y="64"></text>
			<text id="d8_5" class="day" x="152" y="64"></text>
			<text id="d8_6" class="day" x="190" y="64"></text>
			<text id="d8_7" class="day saturday" x="228" y="64"></text>
			<text id="d8_8" class="day sunday" x="0" y="94"></text>
			<text id="d8_9" class="day" x="38" y="94"></text>
			<text id="d8_10" class="day" x="76" y="94"></text>
			<text id="d8_11" class="day" x="114" y="94"></text>
			<text id="d8_12" class="day" x="152" y="94"></text>
			<text id="d8_13" class="day" x="190" y="94"></text>
			<text id="d8_14" class="day saturday" x="228" y="94"></text>
			<text id="d8_15" class="day sunday" x="0" y="124"></text>
			<text id="d8_16" class="day" x="38" y="124"></text>
			<text id="d8_17" class="day" x="76" y="124"></text>
			<text id="d8_18" class="day" x="114" y="124"></text>
			<text id="d8_19" class="day" x="152" y="124"></text>
			<text id="d8_20" class="day" x="190" y="124"></text>
			<text id="d8_21" class="day saturday" x="228" y="124"></text>
			<text id="d8_22" class="day sunday" x="0" y="154"></text>
			<text id="d8_23" class="day" x="38" y="154"></text>
			<text id="d8_24" class="day" x="76" y="154"></text>
			<text id="d8_25" class="day" x="114" y="154"></text>
			<text id="d8_26" class="day" x="152" y="154"></text>
			<text id="d8_27" class="day" x="190" y="154"></text>
			<text id="d8_28" class="day saturday" x="228" y="154"></text>
			<text id="d8_29" class="day sunday" x="0" y="184"></text>
			<text id="d8_30" class="day" x="38" y="184"></text>
			<text id="d8_31" class="day" x="76" y="184"></text>
			<text id="d8_32" class="day" x="114" y="184"></text>
			<text id="d8_33" class="day" x="152" y="184"></text>
			<text id="d8_34" class="day" x="190" y="184"></text>
			<text id="d8_35" class="day saturday" x="228" y="184"></text>
			<text id="d8_36" class="day sunday" x="0" y="214"></text>
			<text id="d8_37" class="day" x="38" y="214"></text>
			<text id="d8_38" class="day" x="76" y="214"></text>
			<text id="d8_39" class="day" x="114" y="214"></text>
			<text id="d8_40" class="day" x="152" y="214"></text>
			<text id="d8_41" class="day" x="190" y="214"></text>
			<text id="d8_42" class="day saturday" x="228" y="214"></text>
		</g>
	</g>
	<g id="sep" transform="translate(50 587)">
		<text x="115" y="0" class="month">9</text>
		<use href="#day_of_week" />
		<g class="dates">
			<text id="d9_1" class="day sunday" x="0" y="64"></text>
			<text id="d9_2" class="day" x="38" y="64"></text>
			<text id="d9_3" class="day" x="76" y="64"></text>
			<text id="d9_4" class="day" x="114" y="64"></text>
			<text id="d9_5" class="day" x="152" y="64"></text>
			<text id="d9_6" class="day" x="190" y="64"></text>
			<text id="d9_7" class="day saturday" x="228" y="64"></text>
			<text id="d9_8" class="day sunday" x="0" y="94"></text>
			<text id="d9_9" class="day" x="38" y="94"></text>
			<text id="d9_10" class="day" x="76" y="94"></text>
			<text id="d9_11" class="day" x="114" y="94"></text>
			<text id="d9_12" class="day" x="152" y="94"></text>
			<text id="d9_13" class="day" x="190" y="94"></text>
			<text id="d9_14" class="day saturday" x="228" y="94"></text>
			<text id="d9_15" class="day sunday" x="0" y="124"></text>
			<text id="d9_16" class="day" x="38" y="124"></text>
			<text id="d9_17" class="day" x="76" y="124"></text>
			<text id="d9_18" class="day" x="114" y="124"></text>
			<text id="d9_19" class="day" x="152" y="124"></text>
			<text id="d9_20" class="day" x="190" y="124"></text>
			<text id="d9_21" class="day saturday" x="228" y="124"></text>
			<text id="d9_22" class="day sunday" x="0" y="154"></text>
			<text id="d9_23" class="day" x="38" y="154"></text>
			<text id="d9_24" class="day" x="76" y="154"></text>
			<text id="d9_25" class="day" x="114" y="154"></text>
			<text id="d9_26" class="day" x="152" y="154"></text>
			<text id="d9_27" class="day" x="190" y="154"></text>
			<text id="d9_28" class="day saturday" x="228" y="154"></text>
			<text id="d9_29" class="day sunday" x="0" y="184"></text>
			<text id="d9_30" class="day" x="38" y="184"></text>
			<text id="d9_31" class="day" x="76" y="184"></text>
			<text id="d9_32" class="day" x="114" y="184"></text>
			<text id="d9_33" class="day" x="152" y="184"></text>
			<text id="d9_34" class="day" x="190" y="184"></text>
			<text id="d9_35" class="day saturday" x="228" y="184"></text>
			<text id="d9_36" class="day sunday" x="0" y="214"></text>
			<text id="d9_37" class="day" x="38" y="214"></text>
			<text id="d9_38" class="day" x="76" y="214"></text>
			<text id="d9_39" class="day" x="114" y="214"></text>
			<text id="d9_40" class="day" x="152" y="214"></text>
			<text id="d9_41" class="day" x="190" y="214"></text>
			<text id="d9_42" class="day saturday" x="228" y="214"></text>
		</g>
	</g>
	<g id="oct" transform="translate(330 587)">
		<text x="115" y="0" class="month">10</text>
		<use href="#day_of_week" />
		<g class="dates">
			<text id="d10_1" class="day sunday" x="0" y="64"></text>
			<text id="d10_2" class="day" x="38" y="64"></text>
			<text id="d10_3" class="day" x="76" y="64"></text>
			<text id="d10_4" class="day" x="114" y="64"></text>
			<text id="d10_5" class="day" x="152" y="64"></text>
			<text id="d10_6" class="day" x="190" y="64"></text>
			<text id="d10_7" class="day saturday" x="228" y="64"></text>
			<text id="d10_8" class="day sunday" x="0" y="94"></text>
			<text id="d10_9" class="day" x="38" y="94"></text>
			<text id="d10_10" class="day" x="76" y="94"></text>
			<text id="d10_11" class="day" x="114" y="94"></text>
			<text id="d10_12" class="day" x="152" y="94"></text>
			<text id="d10_13" class="day" x="190" y="94"></text>
			<text id="d10_14" class="day saturday" x="228" y="94"></text>
			<text id="d10_15" class="day sunday" x="0" y="124"></text>
			<text id="d10_16" class="day" x="38" y="124"></text>
			<text id="d10_17" class="day" x="76" y="124"></text>
			<text id="d10_18" class="day" x="114" y="124"></text>
			<text id="d10_19" class="day" x="152" y="124"></text>
			<text id="d10_20" class="day" x="190" y="124"></text>
			<text id="d10_21" class="day saturday" x="228" y="124"></text>
			<text id="d10_22" class="day sunday" x="0" y="154"></text>
			<text id="d10_23" class="day" x="38" y="154"></text>
			<text id="d10_24" class="day" x="76" y="154"></text>
			<text id="d10_25" class="day" x="114" y="154"></text>
			<text id="d10_26" class="day" x="152" y="154"></text>
			<text id="d10_27" class="day" x="190" y="154"></text>
			<text id="d10_28" class="day saturday" x="228" y="154"></text>
			<text id="d10_29" class="day sunday" x="0" y="184"></text>
			<text id="d10_30" class="day" x="38" y="184"></text>
			<text id="d10_31" class="day" x="76" y="184"></text>
			<text id="d10_32" class="day" x="114" y="184"></text>
			<text id="d10_33" class="day" x="152" y="184"></text>
			<text id="d10_34" class="day" x="190" y="184"></text>
			<text id="d10_35" class="day saturday" x="228" y="184"></text>
			<text id="d10_36" class="day sunday" x="0" y="214"></text>
			<text id="d10_37" class="day" x="38" y="214"></text>
			<text id="d10_38" class="day" x="76" y="214"></text>
			<text id="d10_39" class="day" x="114" y="214"></text>
			<text id="d10_40" class="day" x="152" y="214"></text>
			<text id="d10_41" class="day" x="190" y="214"></text>
			<text id="d10_42" class="day saturday" x="228" y="214"></text>
		</g>
	</g>
	<g id="nov" transform="translate(610 587)">
		<text x="115" y="0" class="month">11</text>
		<use href="#day_of_week" />
		<g class="dates">
			<text id="d11_1" class="day sunday" x="0" y="64"></text>
			<text id="d11_2" class="day" x="38" y="64"></text>
			<text id="d11_3" class="day" x="76" y="64"></text>
			<text id="d11_4" class="day" x="114" y="64"></text>
			<text id="d11_5" class="day" x="152" y="64"></text>
			<text id="d11_6" class="day" x="190" y="64"></text>
			<text id="d11_7" class="day saturday" x="228" y="64"></text>
			<text id="d11_8" class="day sunday" x="0" y="94"></text>
			<text id="d11_9" class="day" x="38" y="94"></text>
			<text id="d11_10" class="day" x="76" y="94"></text>
			<text id="d11_11" class="day" x="114" y="94"></text>
			<text id="d11_12" class="day" x="152" y="94"></text>
			<text id="d11_13" class="day" x="190" y="94"></text>
			<text id="d11_14" class="day saturday" x="228" y="94"></text>
			<text id="d11_15" class="day sunday" x="0" y="124"></text>
			<text id="d11_16" class="day" x="38" y="124"></text>
			<text id="d11_17" class="day" x="76" y="124"></text>
			<text id="d11_18" class="day" x="114" y="124"></text>
			<text id="d11_19" class="day" x="152" y="124"></text>
			<text id="d11_20" class="day" x="190" y="124"></text>
			<text id="d11_21" class="day saturday" x="228" y="124"></text>
			<text id="d11_22" class="day sunday" x="0" y="154"></text>
			<text id="d11_23" class="day" x="38" y="154"></text>
			<text id="d11_24" class="day" x="76" y="154"></text>
			<text id="d11_25" class="day" x="114" y="154"></text>
			<text id="d11_26" class="day" x="152" y="154"></text>
			<text id="d11_27" class="day" x="190" y="154"></text>
			<text id="d11_28" class="day saturday" x="228" y="154"></text>
			<text id="d11_29" class="day sunday" x="0" y="184"></text>
			<text id="d11_30" class="day" x="38" y="184"></text>
			<text id="d11_31" class="day" x="76" y="184"></text>
			<text id="d11_32" class="day" x="114" y="184"></text>
			<text id="d11_33" class="day" x="152" y="184"></text>
			<text id="d11_34" class="day" x="190" y="184"></text>
			<text id="d11_35" class="day saturday" x="228" y="184"></text>
			<text id="d11_36" class="day sunday" x="0" y="214"></text>
			<text id="d11_37" class="day" x="38" y="214"></text>
			<text id="d11_38" class="day" x="76" y="214"></text>
			<text id="d11_39" class="day" x="114" y="214"></text>
			<text id="d11_40" class="day" x="152" y="214"></text>
			<text id="d11_41" class="day" x="190" y="214"></text>
			<text id="d11_42" class="day saturday" x="228" y="214"></text>
		</g>
	</g>
	<g id="dec" transform="translate(890 587)">
		<text x="115" y="0" class="month">12</text>
		<use href="#day_of_week" />
		<g class="dates">
			<text id="d12_1" class="day sunday" x="0" y="64"></text>
			<text id="d12_2" class="day" x="38" y="64"></text>
			<text id="d12_3" class="day" x="76" y="64"></text>
			<text id="d12_4" class="day" x="114" y="64"></text>
			<text id="d12_5" class="day" x="152" y="64"></text>
			<text id="d12_6" class="day" x="190" y="64"></text>
			<text id="d12_7" class="day saturday" x="228" y="64"></text>
			<text id="d12_8" class="day sunday" x="0" y="94"></text>
			<text id="d12_9" class="day" x="38" y="94"></text>
			<text id="d12_10" class="day" x="76" y="94"></text>
			<text id="d12_11" class="day" x="114" y="94"></text>
			<text id="d12_12" class="day" x="152" y="94"></text>
			<text id="d12_13" class="day" x="190" y="94"></text>
			<text id="d12_14" class="day saturday" x="228" y="94"></text>
			<text id="d12_15" class="day sunday" x="0" y="124"></text>
			<text id="d12_16" class="day" x="38" y="124"></text>
			<text id="d12_17" class="day" x="76" y="124"></text>
			<text id="d12_18" class="day" x="114" y="124"></text>
			<text id="d12_19" class="day" x="152" y="124"></text>
			<text id="d12_20" class="day" x="190" y="124"></text>
			<text id="d12_21" class="day saturday" x="228" y="124"></text>
			<text id="d12_22" class="day sunday" x="0" y="154"></text>
			<text id="d12_23" class="day" x="38" y="154"></text>
			<text id="d12_24" class="day" x="76" y="154"></text>
			<text id="d12_25" class="day" x="114" y="154"></text>
			<text id="d12_26" class="day" x="152" y="154"></text>
			<text id="d12_27" class="day" x="190" y="154"></text>
			<text id="d12_28" class="day saturday" x="228" y="154"></text>
			<text id="d12_29" class="day sunday" x="0" y="184"></text>
			<text id="d12_30" class="day" x="38" y="184"></text>
			<text id="d12_31" class="day" x="76" y="184"></text>
			<text id="d12_32" class="day" x="114" y="184"></text>
			<text id="d12_33" class="day" x="152" y="184"></text>
			<text id="d12_34" class="day" x="190" y="184"></text>
			<text id="d12_35" class="day saturday" x="228" y="184"></text>
			<text id="d12_36" class="day sunday" x="0" y="214"></text>
			<text id="d12_37" class="day" x="38" y="214"></text>
			<text id="d12_38" class="day" x="76" y="214"></text>
			<text id="d12_39" class="day" x="114" y="214"></text>
			<text id="d12_40" class="day" x="152" y="214"></text>
			<text id="d12_41" class="day" x="190" y="214"></text>
			<text id="d12_42" class="day saturday" x="228" y="214"></text>
		</g>
	</g>
	<script>
		const now = new Date();
		const year = now.getFullYear();
		const getText = (month, date) => {
			const day1 = new Date(year, month, 1).getDay();
			return document.getElementById(`d${month + 1}_${day1 + date}`);
		}

		let holidays = [];


		async function dataLoad () {
			const url = "https://www8.cao.go.jp/chosei/shukujitsu/syukujitsu.csv";
			const response = await fetch(url, {mode: "no-cors"});
			const ab       = await response.arrayBuffer();
			const datas    = new TextDecoder("Shift-JIS").decode(ab).split(/\r\n/);
			datas.shift();
			datas.forEach(data => {
				const newData = data.split(",")[0]
				const date = new Date(newData);
				if (date.getFullYear() === year) {
					holidays.push(date);
				}
			});

			console.log(response);
		}

		function dataWrite () {
			document.getElementById("titleWestern").textContent = `${year}年`;
			document.getElementById("titleJapanese").textContent = now.toLocaleString("ja-JP-u-ca-japanese", {era: "short", year: "numeric"});
			
			//dates
			for (let m = 0; 12 > m; m++) {
				const month = m + 1
				const length = new Date(year, month, 0).getDate();

				for (let d = 0; length > d; d++) {
					const date = d + 1;
					const Text = getText(m, date);
					Text.textContent = date;

					if (holidays.some(holiday => holiday.getTime() == new Date(year, m, date).getTime())) {
						Text.classList.add("holiday");
					}
				}
			}

		}

		dataLoad();
		setTimeout(dataWrite, 1000);
	</script>
</svg>
