<svg xmlns="http://www.w3.org/2000/svg" xmlns:svg="http://www.w3.org/2000/svg" version="1.1" viewBox="0 0 1000 1000">
	<defs>
		<symbol id="SaberIcon" viewBox="0 0 1000 1000">
			<path d="M 500 110 C 453 158 440 195 425 255 L 425 465 C 420 495 419 537 385 545 L 385 570 C 425 585 423 584 435 605 C 440 610 435 630 435 630 C 435 630 381 626 380 620 C 362 612 349 594 335 580 C 330 580 305 585 305 585 L 300 615 C 326 637 351 655 371 665 L 365 675 C 340 665 305 635 290 625 L 265 635 L 265 675 C 265 679 330 724 350 729 C 375 734 415 734 415 734 L 425 714 C 425 709 460 699 465 719 C 465 719 460 734 450 734 L 450 754 C 450 754 465 754 470 764 L 470 824 C 470 829 465 834 460 834 L 450 854 C 455 880 470 890 500 890 C 530 890 545 880 550 854 L 540 834 C 535 834 530 829 530 824 L 530 764 C 535 754 550 754 550 754 L 550 734 C 540 734 535 719 535 719 C 540 699 575 709 575 714 L 585 734 C 585 734 625 734 650 729 C 670 724 735 679 735 675 L 735 635 L 710 625 C 695 635 660 665 635 675 L 629 665 C 649 655 674 637 700 615 L 695 585 C 695 585 670 580 665 580 C 651 594 638 612 620 620 C 619 626 565 630 565 630 C 565 630 560 610 565 605 C 577 584 575 585 615 570 L 615 545 C 581 537 580 495 575 465 L 575 255 C 560 195 547 158 500 110 Z M 500 355 L 510 375 L 515 530 C 518 532 524 537 524 537 L 525 560 L 507 580 L 507 635 L 518 641 C 518 641 509 667 500 670 C 491 667 482 641 482 641 L 493 635 L 493 580 L 475 560 L 476 537 C 476 537 482 532 485 530 L 490 375 L 500 355 Z" />
		</symbol>
		<symbol id="ArcherIcon" viewBox="0 0 1000 1000">
			<path d="M 565 124 C 545 156 515 197 425 197 C 355 246 325 331 295 403 C 325 423 325 444 325 444 L 325 490 L 275 472 C 270 466 265 424 265 424 L 115 500 L 265 576 C 265 576 270 534 275 528 L 325 510 L 325 556 C 325 556 325 577 295 597 C 325 669 355 754 425 803 C 515 803 545 844 565 876 L 595 851 C 595 829 575 822 555 811 C 595 806 605 837 605 838 L 635 807 C 605 782 571 782 541 770 L 667 510 C 707 532 705 535 715 571 L 755 571 L 755 528 L 760 528 L 770 571 L 795 571 L 795 528 L 800 528 L 810 571 L 885 571 L 835 500 L 885 429 L 810 429 L 800 472 L 795 472 L 795 429 L 770 429 L 760 472 L 755 472 L 755 429 L 715 429 C 705 465 707 468 667 490 L 541 230 C 571 218 605 218 635 193 L 605 162 C 605 163 595 194 555 189 C 575 178 595 171 595 149 L 565 124 Z M 521 234 L 645 490 L 395 490 L 395 403 C 395 336 435 274 475 241 L 521 234 Z M 246 480 L 265 500 L 246 520 L 215 500 L 246 480 Z M 395 510 L 645 510 L 521 766 L 475 759 C 435 726 395 664 395 597 L 395 510 Z" />
		</symbol>
		<symbol id="LancerIcon" viewBox="0 0 1000 1000">
			<path d="M 160 160 L 293 413 L 315 463 L 392 465 L 433 483 L 443 533 L 516 516 L 533 443 L 483 433 L 465 392 L 463 315 L 413 293 L 160 160 Z M 343 343 L 414 380 L 472 472 L 380 414 L 343 343 Z M 545 472 L 533 533 L 472 545 L 472 565 L 522 575 L 722 755 L 742 805 L 836 836 L 805 742 L 755 722 L 575 522 L 565 472 L 545 472 Z" />
		</symbol>
		<symbol id="RiderIcon" viewBox="0 0 1000 1000">
			<path d="M 490,124 V 190 C 600,243 657,367 672,479 L 741,483 C 735,410 693,316 642,238 638,233 601,251 598,248 595,244 627,216 624,212 L 605,191 C 601,189 570,220 568,217 564,213 589,175 586,173 L 565,157 C 562,155 536,193 533,192 529,190 548,147 545,145 527,136 510,129 490,124 Z M 387,160 C 382,175 399,217 409,221 440,237 434,254 433,270 362,270 312,323 292,388 257,395 237,398 211,398 195,426 195,449 206,463 249,469 269,504 293,503 318,463 341,448 365,438 365,438 375,435 409,449 425,471 433,495 417,517 402,556 363,596 332,637 309,668 316,692 302,755 331,757 348,764 358,773 374,756 372,707 372,656 436,594 520,518 526,485 526,485 545,455 546,397 567,410 553,487 553,487 538,518 564,497 398,663 396,728 389,749 382,773 L 365,786 C 371,859 395,864 418,877 434,860 486,831 529,819 497,787 479,743 479,698 478,604 554,527 648,526 H 651 C 661,402 589,257 490,205 457,207 423,185 387,160 Z M 385,221 C 363,241 312,264 304,277 273,331 257,347 220,383 L 279,376 C 322,294 330,281 415,254 415,254 413,244 407,238 407,238 393,239 385,221 Z M 391,314 C 403,314 412,322 412,332 412,343 403,350 391,350 379,350 370,343 370,332 370,322 379,314 391,314 Z M 648,545 C 564,545 497,614 497,698 497,783 564,850 648,850 732,850 801,783 801,698 801,614 732,545 648,545 Z M 633,582 V 658 C 629,661 626,662 624,664 L 556,626 C 574,601 602,587 633,582 Z M 666,582 C 695,587 722,602 741,626 L 674,664 C 672,662 668,661 666,658 Z M 542,654 607,692 C 606,695 606,698 606,702 L 541,741 C 529,712 529,681 542,654 Z M 757,654 C 768,683 768,714 758,741 L 691,703 V 692 Z M 622,731 C 626,734 629,736 633,737 V 814 C 602,810 574,794 556,769 Z M 675,731 742,769 C 723,794 695,810 666,814 V 737 C 670,736 673,734 675,731 Z" />
		</symbol>
		<symbol id="AssassinIcon" viewBox="0 0 1000 1000">
			<path d="M 350 251 C 303 253 274 337 274 345 C 303 422 303 485 274 526 C 255 550 303 583 322 606 C 360 588 369 598 398 631 C 398 661 407 718 436 718 C 436 718 427 677 427 661 C 427 658 436 664 436 664 C 436 718 465 719 465 719 L 465 668 L 481 670 C 481 720 500 722 500 722 C 500 722 519 720 519 670 L 535 668 L 535 719 C 535 719 564 718 564 664 C 564 664 573 658 573 661 C 573 677 564 718 564 718 C 593 718 602 661 602 631 C 631 598 640 588 678 606 C 697 583 745 550 726 526 C 697 485 697 422 726 345 C 726 337 697 253 650 251 C 641 259 613 267 602 269 C 599 389 553 387 500 388 C 447 387 401 389 398 269 C 387 267 359 259 350 251 Z M 417 297 C 416 340 436 377 500 376 C 564 377 584 340 583 297 C 564 306 535 312 500 312 C 465 312 436 306 417 297 Z M 350 447 L 360 448 C 398 464 417 461 436 461 C 465 498 417 491 379 500 C 369 493 350 481 341 460 C 350 455 350 447 350 447 Z M 650 447 C 650 447 650 455 659 460 C 650 481 631 493 621 500 C 583 491 535 498 564 461 C 583 461 602 464 640 448 L 650 447 Z M 481 533 L 481 591 C 471 591 465 592 465 577 C 465 561 471 548 481 533 Z M 519 533 C 529 548 535 561 535 577 C 535 592 529 591 519 591 L 519 533 Z" />
		</symbol>
		<symbol id="CasterIcon" viewBox="0 0 1000 1000">
			<path d="M 807,193 C 768,197 738,227 699,243 639,210 570,211 520,245 H 500 C 470,231 419,208 419,208 L 460,290 450,316 C 429,362 429,415 450,462 V 484 C 399,488 389,497 389,551 379,571 359,571 339,573 L 329,616 C 289,659 179,773 159,808 141,826 155,840 158,842 160,845 174,859 192,841 227,821 341,711 384,671 L 427,661 C 429,641 429,621 449,611 503,611 512,601 516,550 H 538 C 585,571 638,571 684,550 L 710,540 792,581 C 792,581 769,530 755,500 V 480 C 789,430 790,361 757,301 773,262 803,232 807,193 Z M 600,275 C 620,299 630,323 630,336 630,336 675,298 714,286 702,325 664,370 664,370 677,370 701,380 725,400 712,410 686,410 662,420 685,450 714,510 714,510 714,510 643,480 617,470 621,490 611,500 606,510 592,500 583,480 582,460 556,470 530,490 500,500 510,470 530,444 540,418 520,417 500,408 490,394 500,389 510,379 530,383 520,357 490,286 490,286 490,286 550,315 580,338 590,314 590,288 600,275 Z M 482,518 C 485,533 486,543 473,560 473,560 458,555 444,556 445,542 440,527 440,527 457,515 465,515 482,518 Z" />
		</symbol>
		<symbol id="BerserkerIcon" viewBox="0 0 1000 1000">
			<path d="M 272 170 C 259 170 249 171 236 174 C 245 281 215 345 185 431 C 195 508 238 562 266 626 C 267 676 258 718 251 763 C 296 740 305 661 324 593 L 289 487 C 287 421 289 380 337 329 C 353 341 356 352 361 361 L 340 370 C 355 383 342 372 357 396 L 323 398 L 350 447 C 347 452 341 453 343 463 C 328 461 313 459 301 463 C 322 489 347 515 361 540 C 356 550 357 557 367 566 L 370 643 C 385 663 401 681 416 695 L 418 717 C 404 731 405 742 400 753 C 411 758 423 753 435 751 C 449 785 471 787 481 804 C 491 807 490 824 500 831 C 510 824 509 807 519 804 C 529 787 551 785 565 751 C 577 753 589 758 600 753 C 595 742 596 731 582 717 L 584 695 C 599 681 615 663 630 643 L 633 566 C 643 557 644 550 639 540 C 653 515 678 489 699 463 C 687 459 672 461 657 463 C 659 453 653 452 650 447 L 677 398 L 643 396 C 658 372 645 383 660 370 L 639 361 C 644 352 647 341 663 329 C 711 380 713 421 711 487 L 676 593 C 695 661 704 740 749 763 C 742 718 733 676 734 626 C 762 562 805 508 815 431 C 785 345 755 281 764 174 C 751 171 741 170 728 170 C 694 170 660 185 618 204 C 609 228 601 247 599 275 C 583 283 575 297 565 309 C 566 296 561 284 555 273 C 544 284 529 295 529 311 C 519 295 520 278 500 269 C 480 278 481 295 471 311 C 471 295 456 284 445 273 C 439 284 434 296 435 309 C 425 297 417 283 401 275 C 399 247 391 228 382 204 C 340 185 306 170 272 170 Z M 414 454 C 420 465 432 470 435 482 C 439 496 448 511 461 516 C 471 535 471 552 471 564 L 451 535 C 439 528 424 508 414 490 C 416 479 413 470 414 454 Z M 586 454 C 587 470 584 479 586 490 C 576 508 561 528 549 535 L 529 564 C 529 552 529 535 539 516 C 552 511 561 496 565 482 C 568 470 580 465 586 454 Z M 390 520 C 417 540 440 562 450 582 C 456 603 451 616 448 626 C 447 611 440 601 433 592 C 423 582 413 572 401 563 C 403 557 405 551 401 543 C 395 532 390 535 390 520 Z M 610 520 C 610 535 605 532 599 543 C 595 551 597 557 599 563 C 587 572 577 582 567 592 C 560 601 553 611 552 626 C 549 616 544 603 550 582 C 560 562 583 540 610 520 Z" />
		</symbol>
		<symbol id="ShielderIcon" viewBox="0 0 1000 1000">
			<path d="M 500 182 L 500 183 C 433 217 326 213 239 222 C 238 567 267 644 299 679 C 326 701 280 682 500 817 L 500 816 C 720 681 674 700 701 678 C 733 643 762 566 761 221 C 674 212 567 216 500 182 Z M 500 213 C 567 245 665 241 741 250 C 741 558 713 628 683 658 C 665 680 702 662 500 784 L 500 785 C 298 663 335 681 317 659 C 287 629 259 559 259 251 C 335 242 433 246 500 214 L 500 213 Z M 567 247 C 541 252 515 253 520 287 C 525 299 533 304 541 309 C 522 328 513 342 500 359 L 500 360 C 531 377 562 380 599 384 C 602 486 598 528 587 548 C 609 557 631 566 656 568 C 656 579 653 586 661 600 C 682 606 692 602 707 583 C 727 499 726 362 730 261 C 680 256 621 256 567 247 Z M 587 548 C 575 576 528 586 500 608 L 500 609 C 472 587 425 577 413 549 C 402 567 386 588 387 607 C 362 613 359 613 354 616 C 339 630 338 667 351 677 C 411 719 451 739 500 769 L 500 768 C 549 738 589 718 649 676 C 662 666 661 629 646 615 C 641 612 638 612 613 606 C 614 587 598 566 587 548 Z M 413 549 C 402 529 398 487 401 385 C 438 381 469 378 500 361 L 500 360 C 487 343 478 329 459 310 C 467 305 475 300 480 288 C 485 254 459 253 433 248 C 379 257 320 257 270 262 C 274 363 273 500 293 584 C 308 603 318 607 339 601 C 347 587 344 580 344 569 C 369 567 391 558 413 549 Z" />
		</symbol>
		<symbol id="RulerIcon" viewBox="0 0 1000 1000">
			<path d="M 500 186 C 441 186 383 203 355 231 C 389 256 426 275 449 319 C 441 337 413 341 400 342 L 400 360 L 446 380 C 415 385 401 404 393 422 L 361 422 L 350 400 C 334 391 310 386 293 384 L 290 355 L 260 355 L 257 384 C 240 386 216 391 200 400 L 186 429 C 186 429 181 462 181 463 L 220 463 C 221 451 223 438 230 426 L 275 417 L 320 426 C 327 438 329 451 330 463 L 404 463 L 445 420 L 473 437 L 467 625 L 445 669 C 456 684 467 697 480 703 C 458 713 446 730 435 744 L 500 744 L 565 744 C 554 730 542 713 520 703 C 533 697 544 684 555 669 L 533 625 L 527 437 L 555 420 L 596 463 L 670 463 C 671 451 673 438 680 426 L 725 417 L 770 426 C 777 438 779 451 780 463 L 819 463 C 819 462 814 429 814 429 L 800 400 C 784 391 760 386 743 384 L 740 355 L 710 355 L 707 384 C 690 386 666 391 650 400 L 639 422 L 607 422 C 599 404 585 385 554 380 L 600 360 L 600 342 C 587 341 559 337 551 319 C 574 275 611 256 645 231 C 617 203 559 186 500 186 Z M 500 225 C 520 225 541 230 562 239 C 544 269 526 296 507 328 L 529 353 L 500 380 L 471 353 L 493 328 C 474 296 456 269 438 239 C 459 230 480 225 500 225 Z M 267 433 L 159 622 L 147 622 A 129 103 0 0 0 275 715 A 129 103 0 0 0 403 622 L 391 622 L 283 433 L 267 433 Z M 717 433 L 609 622 L 597 622 A 129 103 0 0 0 725 715 A 129 103 0 0 0 853 622 L 841 622 L 733 433 L 717 433 Z M 275 453 L 371 622 L 179 622 L 275 453 Z M 725 453 L 821 622 L 629 622 L 725 453 Z M 422 749 C 414 755 404 761 399 772 C 354 778 335 772 325 815 L 431 815 C 445 798 469 788 500 788 C 531 788 555 798 569 815 L 675 815 C 665 772 646 778 601 772 C 596 761 586 755 578 749 L 500 749 L 422 749 Z" />
		</symbol>
		<symbol id="AvengerIcon" viewBox="0 0 1000 1000">
			<path d="M 517 130 C 547 205 466 184 434 241 C 416 272 458 307 406 323 C 389 275 410 247 453 194 C 276 234 371 371 298 380 C 277 309 358 316 308 237 C 297 297 208 313 206 359 C 196 417 254 427 201 504 C 196 582 186 708 282 708 C 283 750 272 746 305 768 C 293 774 290 817 297 833 C 326 845 380 848 379 847 C 380 847 380 839 383 828 L 410 845 C 410 855 409 855 412 867 C 443 872 492 868 491 867 C 491 867 492 856 492 844 L 525 844 C 526 852 528 859 532 868 C 561 868 608 854 607 853 C 608 853 607 855 605 839 L 642 822 C 648 819 647 827 655 829 C 678 805 701 763 702 762 C 708 755 670 731 670 736 L 669 722 C 806 657 745 652 803 464 C 762 489 730 507 722 588 C 721 606 702 611 694 595 C 706 521 714 514 782 469 C 799 412 772 388 744 345 C 709 297 721 238 744 180 C 682 201 586 292 651 359 C 674 384 706 448 681 468 C 665 481 670 434 665 428 C 656 406 629 412 613 397 C 665 487 638 572 515 575 C 490 575 474 615 496 628 C 482 642 468 650 452 659 C 472 646 474 627 466 591 C 463 577 503 563 513 562 C 572 555 625 518 617 461 C 588 427 592 386 589 347 C 563 364 556 381 552 414 C 550 397 550 381 550 364 C 576 326 610 298 639 261 C 570 283 466 327 470 392 C 497 421 522 442 503 487 C 497 456 499 447 468 432 C 473 457 475 487 456 492 C 424 502 421 517 418 538 C 409 518 418 497 431 487 C 472 461 469 423 427 421 C 424 334 522 314 560 248 C 550 254 533 263 523 256 C 571 222 572 160 517 130 Z M 355 519 C 326 584 356 622 296 645 C 302 626 297 624 283 612 C 286 559 322 541 355 519 Z M 243 608 C 246 629 250 625 274 639 C 267 640 257 641 262 654 C 248 649 234 634 236 631 C 239 627 242 614 243 608 Z M 642 613 C 652 621 652 645 656 664 C 659 668 661 676 668 668 C 677 659 690 633 692 639 C 696 644 672 665 668 684 C 666 699 662 707 653 694 C 666 631 557 631 568 678 C 570 685 579 699 578 689 C 585 647 644 690 589 702 C 565 701 524 681 574 644 C 586 635 627 641 642 613 Z M 382 670 L 389 684 L 403 684 L 405 670 C 417 672 414 679 412 692 C 399 693 387 693 381 697 L 384 713 C 382 714 380 714 378 715 L 370 698 L 352 706 C 348 707 352 718 357 724 C 355 726 353 727 351 728 L 342 709 L 325 721 C 324 719 322 716 320 714 L 345 700 C 349 698 336 685 328 679 C 330 677 344 673 345 675 L 354 692 L 375 684 L 369 671 L 382 670 Z M 652 716 L 654 737 C 636 755 625 771 611 798 C 614 799 620 807 620 807 L 602 816 C 599 817 597 797 595 794 C 570 794 550 796 521 806 C 522 814 521 818 522 825 L 493 827 L 491 805 C 464 801 444 800 412 804 C 409 810 412 824 411 824 L 387 812 C 388 803 391 795 392 788 C 388 785 378 785 374 783 C 366 765 397 785 411 766 C 440 739 496 723 531 738 C 583 753 614 750 652 716 Z M 661 755 C 674 763 673 762 680 766 L 652 804 C 649 799 650 794 635 792 L 661 755 Z M 321 792 L 367 801 L 362 827 L 316 819 C 320 811 326 805 321 792 Z M 582 811 C 578 823 584 832 589 843 L 543 853 C 544 842 545 832 538 820 L 582 811 Z M 429 821 L 474 821 C 467 835 471 842 474 850 L 429 850 C 430 840 434 831 429 821 Z" />
		</symbol>
		<symbol id="MoonCancerIcon" viewBox="0 0 1000 1000">
			<path d="M 500 115 L 225 255 L 195 666 L 258 632 C 255 630 253 627 251 625 C 259 617 272 610 284 605 L 267 595 L 269 517 L 336 480 L 403 520 L 402 553 L 420 543 C 417 529 415 515 415 501 L 354 464 L 356 387 L 423 350 L 490 390 L 489 419 C 493 412 501 404 510 394 L 510 390 L 520 384 L 577 350 L 644 387 L 646 464 L 580 504 L 552 489 C 553 502 553 515 552 528 L 559 532 C 584 508 615 492 654 486 L 664 480 L 671 484 C 678 483 685 483 693 483 C 693 487 693 491 692 495 L 731 517 L 733 595 L 705 612 L 805 666 L 775 255 L 500 115 Z M 500 220 L 565 256 L 566 333 L 500 373 L 434 333 L 435 256 L 500 220 Z M 465 406 C 395 476 425 586 495 626 C 555 556 555 486 515 406 C 495 426 485 436 485 446 C 485 436 475 416 465 406 Z M 685 496 C 595 496 545 546 515 626 C 615 646 684 636 714 536 L 675 536 C 675 536 685 516 685 496 Z M 294 576 C 304 596 304 596 315 606 C 304 606 284 616 274 626 C 335 696 425 696 485 636 C 445 586 405 576 365 576 L 355 576 L 294 576 Z M 485 656 C 475 666 455 676 455 676 L 475 716 L 505 696 C 505 686 495 666 485 656 Z M 515 656 C 525 706 545 746 575 766 L 615 736 L 585 726 C 580 702 573 679 565 656 L 515 656 Z M 595 656 L 595 706 L 625 716 C 641 702 646 694 655 676 C 635 666 615 656 595 656 Z M 445 686 C 423 704 395 726 395 746 L 415 766 C 425 766 455 746 455 746 L 465 726 L 445 686 Z M 675 696 L 645 736 L 685 766 L 725 766 C 715 736 695 706 675 696 Z M 515 716 L 475 726 L 475 746 L 465 766 L 495 816 C 515 776 515 746 515 716 Z M 625 756 L 605 786 C 625 806 655 816 685 826 C 675 816 675 796 665 786 L 625 756 Z M 385 766 C 375 786 375 816 365 856 C 385 846 395 846 415 826 L 425 786 L 385 766 Z M 445 766 L 425 846 C 425 856 445 876 445 886 C 465 866 485 846 495 826 L 445 766 Z" />
		</symbol>
		<symbol id="ForeignerIcon" viewBox="0 0 1000 1000">
			<path d="M 455,156 410,405 350,299 383,411 180,270 324,477 207,445 309,501 65.8,545 314,590 208,650 321,617 180,820 386,677 355,793 411,690 455,934 500,687 559,791 526,679 730,820 587,613 703,645 600,589 844,545 597,500 701,441 588,473 878,122 523,413 555,297 499,399 Z M 455,312 478,438 454,481 432,443 Z M 290,380 395,452 409,500 365,489 Z M 620,380 547,485 499,499 512,455 Z M 558,522 688,545 562,568 519,544 Z M 348,523 391,546 351,569 222,545 Z M 501,590 545,602 620,710 514,637 Z M 410,591 398,636 290,710 363,605 Z M 456,609 478,649 455,779 432,652 Z" />
		</symbol>
		<symbol id="AlteregoIcon" viewBox="0 0 100 100">
			<path d="M 466 135 C 283 141 235 286 248 381 L 248 382 C 259 416 251 433 237 448 C 215 467 192 476 169 489 C 175 505 180 521 185 537 C 198 529 211 525 224 524 C 243 523 260 531 275 544 C 294 526 314 520 333 523 C 350 526 364 535 378 543 C 395 526 414 516 434 517 C 450 518 465 524 479 536 C 483 522 486 507 488 492 C 492 453 497 413 500 372 C 503 413 508 453 512 492 C 514 507 517 522 521 536 C 527 531 533 527 539 524 C 536 513 534 502 532 490 C 519 376 500 263 547 151 C 667 156 751 269 732 377 C 721 416 731 444 749 462 C 766 479 787 489 807 499 C 806 503 801 517 797 528 C 803 530 809 533 815 537 C 820 521 825 505 831 489 C 808 476 785 467 763 448 C 749 433 741 416 752 382 L 752 381 C 765 286 717 141 534 135 C 513 182 504 229 500 276 C 496 229 487 182 466 135 Z M 336 295 L 334 368 C 354 370 366 379 376 391 C 356 405 345 414 326 417 C 321 443 316 465 306 485 C 306 464 300 445 302 418 C 292 417 286 415 286 411 C 286 389 296 375 306 370 C 316 344 326 320 336 295 Z M 672 537 C 651 537 630 544 620 563 C 564 515 506 550 500 600 C 494 550 436 515 380 563 C 364 526 275 532 275 565 C 254 520 155 534 160 600 L 160 720 C 175 743 172 767 221 752 C 221 800 329 802 319 766 C 326 807 386 840 422 796 C 426 838 460 859 500 858 C 540 859 574 838 578 796 C 614 840 674 807 681 766 C 671 802 779 800 779 752 C 828 767 825 743 840 720 L 840 600 C 845 534 746 520 725 565 C 726 550 700 537 672 537 Z M 424 571 C 443 571 462 581 465 600 L 465 749 C 468 774 467 802 500 795 C 533 802 532 774 535 749 L 535 600 C 541 561 612 562 615 600 L 615 739 C 613 760 634 756 635 741 L 635 740 L 635 600 C 649 556 713 572 715 600 L 715 720 C 715 728 734 724 735 719 L 735 600 C 742 566 804 567 811 600 L 815 710 C 812 732 785 726 785 710 L 785 607 C 778 601 770 601 765 606 L 765 720 C 764 730 757 743 750 748 C 732 758 713 759 698 748 C 690 742 685 731 685 720 L 685 605 C 678 599 672 600 665 605 L 665 740 C 658 799 589 794 585 741 L 585 740 L 585 607 C 578 602 572 603 565 606 L 565 750 C 564 792 542 842 500 828 C 458 842 436 792 435 750 L 435 606 C 428 603 422 602 415 607 L 415 740 L 415 741 C 411 794 342 799 335 740 L 335 605 C 328 600 322 599 315 605 L 315 720 C 315 731 310 742 302 748 C 287 759 268 758 250 748 C 243 743 236 730 235 720 L 235 606 C 230 601 222 601 215 607 L 215 710 C 215 726 188 732 185 710 L 189 600 C 196 567 258 566 265 600 L 265 719 C 266 724 285 728 285 720 L 285 600 C 287 572 351 556 365 600 L 365 740 L 365 741 C 366 756 387 760 385 739 L 385 600 C 386 581 405 571 424 571 Z" />
		</symbol>
		<symbol id="PretenderIcon" viewBox="0 0 1000 1000">
			<path d="M 439,74 C 428,171 447,195 353,235 292,255 302,353 369,364 338,266 456,338 368,392 352,408 346,424 346,440 351,469 421,459 383,505 351,531 358,551 361,577 356,632 451,655 440,695 404,675 377,681 348,670 359,691 364,721 388,726 L 409,763 C 418,757 429,752 427,734 L 441,773 464,765 477,789 499,778 520,804 530,776 552,781 565,759 579,773 C 596,771 598,755 596,737 L 612,760 C 624,750 635,740 633,720 L 647,731 649,717 C 658,719 667,725 676,708 684,696 694,685 689,648 696,638 721,607 733,577 728,530 727,494 752,451 692,479 703,478 701,549 694,488 694,429 652,382 592,425 558,446 548,522 502,555 474,570 476,629 468,567 468,570 533,517 L 553,429 C 567,414 587,403 591,353 551,288 535,224 551,153 467,212 546,275 539,335 529,345 517,343 504,338 517,441 482,418 464,420 466,454 473,484 452,509 474,455 436,454 437,423 444,370 512,380 472,312 463,276 504,276 498,216 501,206 479,185 464,167 453,142 461,98 439,74 Z M 237,280 C 247,327 194,355 212,395 225,405 237,423 250,420 233,470 197,585 260,566 265,568 233,614 260,635 275,648 287,660 332,658 322,645 312,634 312,609 315,603 317,607 323,608 321,627 325,640 339,645 348,658 371,654 389,654 357,625 340,579 349,536 353,519 368,498 366,477 356,449 320,443 295,468 319,412 313,368 252,364 250,336 270,291 237,280 Z M 877,387 C 839,387 798,406 769,442 744,484 744,521 742,557 744,564 747,565 762,563 769,563 774,574 791,571 831,549 844,511 842,458 824,480 807,501 799,528 809,435 874,414 957,427 941,400 911,387 877,387 Z M 63,397 C 27,433 43,484 81,507 69,548 123,566 150,542 160,530 165,519 180,519 166,527 216,564 213,556 201,519 207,451 188,456 121,453 91,456 63,397 Z M 673,631 C 650,683 628,703 560,695 582,645 633,631 673,631 Z M 311,684 C 303,704 300,712 311,733 322,755 330,766 358,759 370,783 345,781 320,784 341,805 349,806 380,799 L 396,814 395,846 424,842 500,925 594,842 643,846 624,815 C 654,792 677,812 709,784 682,782 667,778 649,756 639,759 628,786 607,788 607,804 599,814 586,822 L 576,792 C 573,806 569,820 560,827 L 541,811 C 533,830 538,847 533,852 L 511,830 494,850 C 487,841 489,830 479,815 L 466,828 439,798 436,820 406,784 398,791 392,766 C 376,750 352,731 351,708 341,690 336,696 328,690 322,703 322,705 331,716 316,708 313,702 311,684 Z" />
		<symbol id="BeastIcon" viewBox="0 0 1000 1000">
			<path d="M 500 90 C 480 113 465 139 466 163 C 456 166 443 180 441 193 C 436 198 431 208 430 218 C 424 219 417 220 409 219 C 362 152 241 174 234 192 C 192 139 165 124 152 139 C 148 151 158 184 179 216 C 158 209 147 262 172 304 C 156 338 161 380 225 381 C 209 402 189 421 148 420 C 163 444 150 483 129 480 C 90 469 79 473 60 500 C 79 527 90 531 129 520 C 150 517 163 556 148 580 C 189 579 209 598 225 619 C 161 620 156 662 172 696 C 147 738 158 791 179 784 C 158 816 148 849 152 861 C 165 876 192 861 234 808 C 241 826 362 848 409 781 C 417 780 424 781 430 782 C 431 792 436 802 441 807 C 443 820 456 834 466 837 C 465 861 480 887 500 910 C 520 887 535 861 534 837 C 544 834 557 820 559 807 C 564 802 569 792 570 782 C 576 781 583 780 591 781 C 638 848 759 826 766 808 C 808 861 835 876 848 861 C 852 849 842 816 821 784 C 842 791 853 738 828 696 C 844 662 839 620 775 619 C 791 598 811 579 852 580 C 837 556 850 517 871 520 C 910 531 921 527 940 500 C 921 473 910 469 871 480 C 850 483 837 444 852 420 C 811 421 791 402 775 381 C 839 380 844 338 828 304 C 853 262 842 209 821 216 C 842 184 852 151 848 139 C 835 124 808 139 766 192 C 759 174 638 152 591 219 C 583 220 576 219 570 218 C 569 208 564 198 559 193 C 557 180 544 166 534 163 C 535 139 520 113 500 90 Z M 500 139 C 527 149 516 178 513 203 C 515 202 516 200 518 198 C 542 178 550 207 531 222 C 561 215 555 244 535 260 C 543 259 550 257 555 254 C 554 256 554 259 554 261 C 493 287 498 359 535 410 C 536 423 539 435 545 446 C 560 474 588 492 620 492 C 657 492 688 469 699 437 C 753 408 792 453 816 488 L 822 486 C 799 450 772 404 705 407 C 706 401 705 388 700 385 C 699 483 569 519 549 408 C 553 321 666 309 688 393 C 690 375 695 363 718 381 C 733 392 711 407 748 400 C 685 332 660 324 620 322 C 575 322 539 357 535 401 C 525 370 515 301 564 282 C 572 289 584 292 598 285 L 598 268 C 569 272 563 264 568 240 C 600 243 620 232 636 213 C 628 215 619 216 610 217 C 646 187 694 181 721 194 C 687 203 622 216 628 280 C 617 285 607 290 598 296 C 576 290 558 295 553 333 C 561 316 575 299 600 311 C 620 306 637 291 673 286 C 692 283 690 263 675 262 C 664 264 654 268 643 273 C 650 239 681 216 749 222 C 828 125 830 188 789 250 C 773 250 752 267 753 274 C 786 255 793 281 763 298 C 764 299 821 275 814 257 C 824 281 810 326 789 340 C 799 335 808 328 815 321 C 845 360 788 370 763 364 C 757 355 750 347 742 340 C 745 334 754 328 767 323 C 745 318 714 316 697 332 C 753 337 762 449 828 431 C 834 502 870 491 888 485 C 901 481 911 486 904 500 C 911 514 901 519 888 515 C 870 509 834 498 828 569 C 762 551 753 663 697 668 C 714 684 745 682 767 677 C 754 672 745 666 742 660 C 750 653 757 645 763 636 C 788 630 845 640 815 679 C 808 672 799 665 789 660 C 810 674 824 719 814 743 C 821 725 764 701 763 702 C 793 719 786 745 753 726 C 752 733 773 750 789 750 C 830 812 828 875 749 778 C 681 784 650 761 643 727 C 654 732 664 736 675 738 C 690 737 692 717 673 714 C 637 709 620 694 600 689 C 575 701 561 684 553 667 C 558 705 576 710 598 704 C 607 710 617 715 628 720 C 622 784 687 797 721 806 C 694 819 646 813 610 783 C 619 784 628 785 636 787 C 620 768 600 757 568 760 C 563 736 569 728 598 732 L 598 715 C 584 708 572 711 564 718 C 515 699 525 630 535 599 C 539 643 575 678 620 678 C 660 676 685 668 748 600 C 711 593 733 608 718 619 C 695 637 690 625 688 607 C 666 691 553 679 549 592 C 569 481 699 517 700 615 C 705 612 706 599 705 593 C 772 596 799 550 822 514 L 816 512 C 792 547 753 592 699 563 C 688 531 657 508 620 508 C 588 508 560 526 545 554 C 539 565 536 577 535 590 C 498 641 493 713 554 739 C 554 741 554 744 555 746 C 550 743 543 741 535 740 C 555 756 561 785 531 778 C 550 793 542 822 518 802 C 516 800 515 798 513 797 C 516 822 527 851 500 861 C 473 851 484 822 487 797 C 485 798 484 800 482 802 C 458 822 450 793 469 778 C 439 785 445 756 465 740 C 457 741 450 743 445 746 C 446 744 446 741 446 739 C 507 713 502 641 465 590 C 464 577 461 565 455 554 C 440 526 412 508 380 508 C 343 508 312 531 301 563 C 247 592 208 547 184 512 L 178 514 C 201 550 228 596 295 593 C 294 599 295 612 300 615 C 301 517 431 481 451 592 C 447 679 334 691 312 607 C 310 625 305 637 282 619 C 267 608 289 593 252 600 C 315 668 340 676 380 678 C 425 678 461 643 465 599 C 475 630 485 699 436 718 C 428 711 416 708 402 715 L 402 732 C 431 728 437 736 432 760 C 400 757 380 768 364 787 C 372 785 381 784 390 783 C 354 813 306 819 279 806 C 313 797 378 784 372 720 C 383 715 393 710 402 704 C 424 710 442 705 447 667 C 439 684 425 701 400 689 C 380 694 363 709 327 714 C 308 717 310 737 325 738 C 336 736 346 732 357 727 C 350 761 319 784 251 778 C 172 875 170 812 211 750 C 227 750 248 733 247 726 C 214 745 207 719 237 702 C 236 701 179 725 186 743 C 176 719 190 674 211 660 C 201 665 192 672 185 679 C 155 640 212 630 237 636 C 243 645 250 653 258 660 C 255 666 246 672 233 677 C 255 682 286 684 303 668 C 247 663 238 551 172 569 C 166 498 130 509 112 515 C 99 519 89 514 96 500 C 89 486 99 481 112 485 C 130 491 166 502 172 431 C 238 449 247 337 303 332 C 286 316 255 318 233 323 C 246 328 255 334 258 340 C 250 347 243 355 237 364 C 212 370 155 360 185 321 C 192 328 201 335 211 340 C 190 326 176 281 186 257 C 179 275 236 299 237 298 C 207 281 214 255 247 274 C 248 267 227 250 211 250 C 170 188 172 125 251 222 C 319 216 350 239 357 273 C 346 268 336 264 325 262 C 310 263 308 283 327 286 C 363 291 380 306 400 311 C 425 299 439 316 447 333 C 442 295 424 290 402 296 C 393 290 383 285 372 280 C 378 216 313 203 279 194 C 306 181 354 187 390 217 C 381 216 372 215 364 213 C 380 232 400 243 432 240 C 437 264 431 272 402 268 L 402 285 C 416 292 428 289 436 282 C 485 301 475 370 465 401 C 461 357 425 322 380 322 C 340 324 315 332 252 400 C 289 407 267 392 282 381 C 305 363 310 375 312 393 C 334 309 447 321 451 408 C 431 519 301 483 300 385 C 295 388 294 401 295 407 C 228 404 201 450 178 486 L 184 488 C 208 453 247 408 301 437 C 312 469 343 492 380 492 C 412 492 440 474 455 446 C 461 435 464 423 465 410 C 502 359 507 287 446 261 C 446 259 446 256 445 254 C 450 257 457 259 465 260 C 445 244 439 215 469 222 C 450 207 458 178 482 198 C 484 200 485 202 487 203 C 484 178 473 149 500 139 Z M 500 230 C 492 230 485 241 485 255 C 485 269 492 280 500 280 C 508 280 515 269 515 255 C 515 241 508 230 500 230 Z M 274 239 C 266 239 256 240 243 244 C 256 263 263 280 253 288 C 265 300 296 312 327 317 C 303 285 280 282 276 254 C 279 248 295 247 312 247 C 296 244 287 240 274 239 Z M 726 239 C 713 240 704 244 688 247 C 705 247 721 248 724 254 C 720 282 697 285 673 317 C 704 312 735 300 747 288 C 737 280 744 263 757 244 C 744 240 734 239 726 239 Z M 380 347 C 347 347 320 374 320 407 C 320 440 347 467 380 467 C 413 467 440 440 440 407 C 440 374 413 347 380 347 Z M 620 347 C 587 347 560 374 560 407 C 560 440 587 467 620 467 C 653 467 680 440 680 407 C 680 374 653 347 620 347 Z M 380 367 C 402 367 420 385 420 407 C 420 429 402 447 380 447 C 358 447 340 429 340 407 C 340 385 358 367 380 367 Z M 620 367 C 642 367 660 385 660 407 C 660 429 642 447 620 447 C 598 447 580 429 580 407 C 580 385 598 367 620 367 Z M 260 440 C 227 440 200 467 200 500 C 200 533 227 560 260 560 C 293 560 320 533 320 500 C 320 467 293 440 260 440 Z M 500 440 C 467 440 440 467 440 500 C 440 533 467 560 500 560 C 533 560 560 533 560 500 C 560 467 533 440 500 440 Z M 740 440 C 707 440 680 467 680 500 C 680 533 707 560 740 560 C 773 560 800 533 800 500 C 800 467 773 440 740 440 Z M 260 460 C 282 460 300 478 300 500 C 300 522 282 540 260 540 C 238 540 220 522 220 500 C 220 478 238 460 260 460 Z M 500 460 C 522 460 540 478 540 500 C 540 522 522 540 500 540 C 478 540 460 522 460 500 C 460 478 478 460 500 460 Z M 740 460 C 762 460 780 478 780 500 C 780 522 762 540 740 540 C 718 540 700 522 700 500 C 700 478 718 460 740 460 Z M 380 533 C 347 533 320 560 320 593 C 320 626 347 653 380 653 C 413 653 440 626 440 593 C 440 560 413 533 380 533 Z M 620 533 C 587 533 560 560 560 593 C 560 626 587 653 620 653 C 653 653 680 626 680 593 C 680 560 653 533 620 533 Z M 380 553 C 402 553 420 571 420 593 C 420 615 402 633 380 633 C 358 633 340 615 340 593 C 340 571 358 553 380 553 Z M 620 553 C 642 553 660 571 660 593 C 660 615 642 633 620 633 C 598 633 580 615 580 593 C 580 571 598 553 620 553 Z M 327 683 C 296 688 265 700 253 712 C 263 720 256 737 243 756 C 256 760 266 761 274 761 C 287 760 296 756 312 753 C 295 753 279 752 276 746 C 280 718 303 715 327 683 Z M 673 683 C 697 715 720 718 724 746 C 721 752 705 753 688 753 C 704 756 713 760 726 761 C 734 761 744 760 757 756 C 744 737 737 720 747 712 C 735 700 704 688 673 683 Z M 500 720 C 492 720 485 731 485 745 C 485 759 492 770 500 770 C 508 770 515 759 515 745 C 515 731 508 720 500 720 Z" />
		</symbol>			
		<symbol id="Beast1" viewBox="0 0 1000 1000">
			<circle r="30" cx="380" cy="407" />
		</symbol>
		<symbol id="Beast2" viewBox="0 0 1000 1000">
			<circle r="30" cx="620" cy="407" />
		</symbol>
		<symbol id="Beast3" viewBox="0 0 1000 1000">
			<circle r="30" cx="740" cy="500" />
		</symbol>
		<symbol id="Beast4" viewBox="0 0 1000 1000">
			<circle r="30" cx="620" cy="593" />
		</symbol>
		<symbol id="Beast5" viewBox="0 0 1000 1000">
			<circle r="30" cx="380" cy="593" />
		</symbol>
		<symbol id="Beast6" viewBox="0 0 1000 1000">
			<circle r="30" cx="260" cy="500" />
		</symbol>
		<symbol id="Beast7" viewBox="0 0 1000 1000">
			<circle r="30" cx="500" cy="500" />
		</symbol>
		<symbol id="ChaldeaIcon" viewBox="0 0 1000 1000">
			<path id="chaldea" d="M 568,137 C 561,163 536,152 523,183 516,199 523,198 518,211 518,211 517,211 517,211 482,211 448,217 417,229 429,218 437,209 442,199 446,184 446,168 445,146 439,172 415,183 407,199 401,212 408,215 406,233 371,248 339,269 312,296 326,277 338,264 337,239 337,219 329,200 318,171 321,208 299,232 297,254 293,284 308,274 308,301 264,347 235,407 229,475 218,479 210,489 210,501 210,513 218,523 229,527 232,557 239,585 250,611 231,650 231,629 217,657 206,683 228,716 207,755 234,727 248,710 258,689 266,671 261,650 255,624 269,654 288,681 311,705 310,725 297,718 300,747 302,769 324,793 321,829 332,801 340,782 340,762 341,743 334,731 325,718 350,740 378,758 410,770 410,787 404,790 410,802 418,817 442,828 448,854 449,832 449,816 445,802 441,793 434,785 424,776 454,786 485,791 517,791 519,791 520,791 522,791 526,803 520,802 526,817 539,848 564,837 571,863 574,839 570,829 566,817 560,807 542,809 524,791 552,790 580,785 607,777 626,786 621,792 636,801 651,807 670,794 690,807 679,792 667,782 656,776 645,772 631,773 611,775 635,767 658,756 680,741 711,741 704,750 720,749 741,747 743,737 777,737 760,725 735,724 723,721 711,720 700,731 683,739 690,734 698,728 705,722 705,722 705,723 705,723 706,722 706,721 706,721 717,712 727,702 736,691 736,692 735,692 735,693 758,690 754,690 767,685 779,679 781,661 796,650 779,650 773,651 763,654 755,659 743,671 736,690 H 735 C 727,699 718,708 708,716 717,700 727,699 735,678 736,664 738,647 737,633 728,655 712,665 709,671 699,689 704,704 705,719 682,738 656,754 628,765 638,759 648,750 651,747 656,746 665,736 667,733 683,714 669,698 677,677 665,698 649,703 636,725 630,742 637,751 625,766 596,778 565,784 533,786 558,778 577,774 583,769 609,752 607,731 618,712 601,731 579,727 559,746 550,759 546,773 529,786 527,786 524,786 522,786 485,786 449,779 417,766 449,763 455,770 463,767 508,761 506,732 528,712 499,732 476,721 455,732 436,748 442,758 416,765 373,748 336,721 306,686 350,697 351,714 369,716 413,720 434,699 458,693 420,702 410,675 371,673 352,671 339,689 306,686 269,643 245,588 239,528 253,527 264,515 264,501 264,487 253,475 239,474 241,453 246,432 252,412 264,376 283,343 307,315 337,314 350,330 368,328 407,326 417,299 455,308 431,302 410,281 366,285 349,287 347,302 308,313 337,280 374,253 416,237 438,244 433,254 452,269 473,280 496,269 525,289 503,269 505,240 460,234 453,231 447,237 419,235 451,223 486,216 522,216 524,216 525,216 527,216 543,229 547,242 556,255 576,274 598,270 615,289 604,270 606,249 580,232 574,228 557,224 533,216 564,217 594,224 622,234 634,249 627,258 633,276 646,298 662,303 674,324 666,303 680,287 664,268 662,265 653,255 648,254 644,251 633,241 623,235 652,245 678,261 702,280 701,296 695,312 706,330 709,336 725,346 734,368 735,354 733,337 732,323 723,300 712,301 704,281 714,290 723,299 732,309 738,329 751,342 760,347 770,350 776,351 793,351 778,340 776,322 764,316 751,311 754,311 734,308 719,292 703,277 685,265 699,272 709,281 720,280 732,277 757,276 774,264 740,264 738,254 717,252 701,251 707,259 678,260 657,245 633,234 608,226 628,228 642,229 653,225 664,219 676,209 687,194 667,207 648,194 633,200 617,209 623,215 603,224 577,216 548,211 520,211 538,192 556,194 563,183 567,171 571,161 568,137 Z M 252,412 C 282,396 287,413 312,411 348,395 356,364 391,353 360,355 335,339 299,360 288,367 281,381 252,412 Z M 204,246 C 225,285 203,318 214,344 228,373 228,349 248,393 256,358 264,334 255,312 245,291 231,274 204,246 Z M 524,319 C 423,319 342,400 342,501 342,602 423,683 524,683 602,683 671,633 696,559 715,546 734,537 753,544 737,530 720,531 702,539 702,536 703,534 703,531 H 705 C 704,531 704,530 703,530 705,520 706,511 706,501 706,400 625,319 524,319 Z M 524,324 C 622,324 701,403 701,501 701,510 700,519 699,528 627,496 607,622 502,545 601,656 643,528 698,530 697,534 697,537 696,541 665,556 633,587 606,598 560,611 466,586 484,472 492,424 564,369 635,472 623,372 561,365 523,365 393,374 390,488 391,501 399,662 555,637 588,625 627,611 661,587 689,564 663,632 597,678 524,678 426,678 347,599 347,501 347,403 426,324 524,324 Z M 523,331 C 430,332 355,407 354,500 354,593 430,670 523,671 584,671 638,638 669,589 649,605 623,622 602,627 579,642 552,650 523,650 441,649 375,582 375,501 376,419 441,353 523,352 605,352 672,419 673,501 673,506 673,510 672,515 L 693,518 C 694,512 694,506 694,500 693,407 616,331 523,331 Z M 255,589 C 284,620 291,634 302,641 338,662 363,646 394,648 359,637 351,606 315,590 290,588 285,605 255,589 Z" />
		</symbol>
		<symbol id="CommandSpellMasterM" viewBox="0 0 1000 1000">
			<path id="masterm" d="M 500 194 C 491 243 481 291 457 335 L 485 388 L 500 485 L 515 388 L 543 335 C 519 291 509 243 500 194 Z M 179 356 C 416 545 366 725 303 765 C 332 751 363 763 387 687 C 419 735 463 762 500 805 C 537 762 581 735 613 687 C 637 763 668 751 697 765 C 634 725 584 545 821 356 C 515 518 659 689 500 755 C 341 689 485 518 179 356 Z M 417 358 C 379 373 338 385 271 382 L 327 413 L 416 413 L 427 437 L 363 444 C 386 460 415 466 440 467 L 448 487 L 397 485 C 430 530 428 579 450 619 C 473 646 484 661 500 680 C 516 661 527 646 550 619 C 572 579 570 530 603 485 L 552 487 L 560 467 C 585 466 614 460 637 444 L 573 437 L 584 413 L 673 413 L 729 382 C 662 385 621 373 583 358 L 508 549 L 545 524 L 528 596 L 500 636 L 472 596 L 455 524 L 492 549 L 417 358 Z" />
		</symbol>
		<symbol id="CommandSpellMasterF" viewBox="0 0 1000 1000">
			<path id="masterf" d="M 500 224 C 500 225 487 250 470 292 L 487 352 C 496 384 496 404 500 430 C 504 404 504 384 513 352 L 530 292 C 513 250 500 225 500 224 z M 179 356 C 416 545 362 712 299 752 C 328 738 343 752 387 687 C 419 735 463 762 500 805 C 537 762 581 735 613 687 C 657 752 672 738 701 752 C 638 712 584 545 821 356 C 524 512 695 611 500 755 C 305 611 476 512 179 356 z M 292 363 C 307 395 334 417 364 438 C 398 482 420 513 478 542 L 457 585 L 481 625 L 500 708 L 519 625 L 543 585 L 522 542 C 580 513 602 482 636 438 C 666 417 693 395 708 363 C 681 373 625 403 549 402 L 511 469 L 568 457 C 557 486 536 504 515 523 L 500 486 L 485 523 C 464 504 443 486 432 457 L 489 469 L 451 402 C 375 403 319 373 292 363 Z" />
		</symbol>
	</defs>
</svg>
