<svg xmlns="http://www.w3.org/2000/svg" xmlns:xlink="http://www.w3.org/1999/xlink" viewBox="0 0 1000 1000" height="1000" width="1000" version="1.1">
   <style id="style">
    path.base{fill:#f8f4e6;}
    path.red{fill:#ba2636;}
    path.line{fill:#0c0c0c;}
  </style>
  <path id="base" class="base" d="M 416,76.1 C 364,92.2 335,147 311,192 281,261 243,331 245,408 238,519 242,633 277,739 310,799 377,916 500,930 623,916 690,799 723,739 758,633 762,519 755,408 757,331 719,261 689,192 665,147 636,92.2 584,76.1 540,105 543,247 542,259 536,263 533,265 500,265 467,265 464,263 458,259 457,247 460,105 416,76.1 Z" />
  <path id="kumatori" class="red" d="M 406,101 C 352,129 309,253 289,319 285,327 287,340 297,335 331,323 390,293 424,282 424,282 432,275 429,267 421,209 421,157 414,103 413,102 407,101 406,101 Z M 594,101 C 593,101 587,102 586,103 579,157 579,209 571,267 568,275 576,282 576,282 610,293 669,323 703,335 713,340 715,327 711,319 691,253 648,129 594,101 Z M 500,335 C 500,335 483,335 480,350 466,404 500,537 500,537 500,537 534,404 520,350 517,335 500,335 500,335 Z M 283,513 C 277,513 272,521 274,527 277,549 313,564 330,570 353,583 379,588 402,596 415,605 419,629 441,624 450,622 443,612 439,608 398,564 354,555 306,549 295,542 299,514 283,513 Z M 717,513 C 701,514 705,542 694,549 646,555 602,564 561,608 557,612 550,622 559,624 581,629 585,605 598,596 621,588 647,583 670,570 687,564 723,549 726,527 728,521 723,513 717,513 Z" />
  <path id="outline" class="line" d="M 416,76.1 C 364,92.2 335,147 311,192 281,261 243,331 245,408 238,519 242,633 277,739 310,799 377,916 500,930 623,916 690,799 723,739 758,633 762,519 755,408 757,331 719,261 689,192 665,147 636,92.2 584,76.1 540,105 543,247 542,259 536,263 533,265 500,265 467,265 464,263 458,259 457,247 460,105 416,76.1 Z M 418,84 C 449,115 449,244 449,265 471,271 487,270 500,270 513,270 529,271 551,265 551,244 551,115 582,84 632,98.7 656,147 681,188 706,250 743,309 744,378 754,471 755,566 734,658 726,716 705,774 663,817 621,866 570,920 500,925 430,920 379,866 337,817 295,774 274,716 266,658 245,566 246,471 256,378 257,309 294,250 319,188 344,147 368,98.7 418,84 Z M 289,548 C 304,557 324,561 338,568 375,587 410,584 439,608 436,602 403,571 392,565 359,552 324,549 289,548 Z M 711,548 C 676,549 641,552 608,565 597,571 564,602 561,608 590,584 625,587 662,568 676,561 696,557 711,548 Z M 303,724 C 299,725 296,729 299,736 306,753 309,774 325,785 338,793 355,784 367,794 382,801 386,818 396,829 409,840 426,831 439,826 455,816 480,832 500,834 520,832 545,816 561,826 574,831 591,840 604,829 614,818 618,801 633,794 645,784 662,793 675,785 691,774 694,753 701,736 704,729 701,725 697,724 694,724 690,726 689,732 690,748 694,769 678,780 664,793 643,777 629,789 615,798 608,811 597,822 586,829 571,821 559,818 540,812 527,821 500,823 473,821 460,812 441,818 429,821 414,829 403,822 392,811 385,798 371,789 357,777 336,793 322,780 306,769 310,748 311,732 310,726 306,724 303,724 Z M 477,734 C 476,734 475,735 475,737 472,748 479,752 484,763 483,758 481,736 478,735 Z M 523,734 522,735 C 519,736 517,758 516,763 521,752 528,748 525,737 525,735 524,734 523,734 Z" />
</svg>
