<svg xmlns="http://www.w3.org/2000/svg" xmlns:xlink="http://www.w3.org/1999/xlink" viewBox="0 0 1000 1000" height="150" width="150" version="1.1">
  <path
    id="base1"
    class="base"
    d="M 500,930 C 623,916 690,799 723,739 758,633 762,519 755,408 757,331 719,261 689,192 665,147 636,92.2 584,76.1 540,105 543,247 542,259 536,263 533,265 500,265 Z M 500,930 C 377,916 310,799 277,739 242,633 238,519 245,408 243,331 281,261 311,192 335,147 364,92.2 416,76.1 460,105 457,247 458,259 464,263 467,265 500,265 Z" />
  <path
    id="ear1"
    class="red"
    d="M 703,335 C 669,323 634,310 600,299 589,295 574,293 570,280 578,222 579,157 586,103 594,97.8 602,111 609,115 660,170 693,257 711,319 715,327 713,340 703,335 Z" />
  <path
    id="ear2"
    class="red"
    d="M 297,335 C 331,323 366,310 400,299 411,295 426,293 430,280 422,222 421,157 414,103 406,97.8 398,111 391,115 340,170 307,257 289,319 285,327 287,340 297,335 Z" />
  <path
    id="forehead1"
    class="red"
    d="M 500,537 C 500,537 534,404 520,350 517,335 500,335 500,335 Z M 500,537 C 500,537 466,404 480,350 483,335 500,335 500,335 Z" />
  <path
    id="eyeline1"
    class="red"
    d="M 561,608 C 598,563 645,558 693,552 701,550 699,543 700,535 701,526 706,517 714,514 722,511 728,520 726,527 723,549 687,564 670,570 647,583 621,588 598,596 590,599 589,607 585,614 579,621 567,626 559,624 550,622 557,612 561,608 Z" />
  <path
    id="eyeline2"
    class="red"
    d="M 439,608 C 402,563 355,558 307,552 299,550 301,543 300,535 299,526 294,517 286,514 278,511 272,520 274,527 277,549 313,564 330,570 353,583 379,588 402,596 410,599 411,607 415,614 421,621 433,626 441,624 450,622 443,612 439,608 Z" />
  <path
    id="outline1"
    class="line"
    d="M 500,930 C 623,916 690,799 723,739 758,633 762,519 755,408 757,331 719,261 689,192 665,147 636,92.2 584,76.1 540,105 543,247 542,259 536,263 533,265 500,265 M 500,270 C 513,270 529,271 551,265 551,244 551,112 582,80.9 V 80.9 C 632,95.6 656,147 681,188 706,250 743,309 744,378 754,471 755,566 734,658 726,716 710,774 668,817 626,866 570,920 500,925 Z M 500,930 C 377,916 310,799 277,739 242,633 238,519 245,408 243,331 281,261 311,192 335,147 364,92.2 416,76.1 460,105 457,247 458,259 464,263 467,265 500,265 M 500,270 C 487,270 471,271 449,265 449,244 449,112 418,80.9 V 80.9 C 368,95.6 344,147 319,188 294,250 257,309 256,378 246,471 245,566 266,658 274,716 290,774 332,817 374,866 430,920 500,925 Z" />
  <path
    id="eye1"
    class="line"
    d="M 608,565 C 622,558 638,554 653,553 691,554 704,548 711,548 696,557 676,561 662,568 636,581 607,585 580,595 573,599 567,603 561,608 564,602 597,571 608,565 Z" />
  <path
    id="eye2"
    class="line"
    d="M 392,565 C 378,558 362,554 347,553 309,554 296,548 289,548 304,557 324,561 338,568 364,581 393,585 420,595 427,599 433,603 439,608 436,602 403,571 392,565 Z" />
  <path
    id="nose1"
    class="line"
    d="M 516,763 C 516,762 518,754 518,749 519,736 521,732 525,737 527,740 527,743 522,753 519,757 517,761 516,763 Z" />
  <path
    id="nose2"
    class="line"
    d="M 484,763 C 484,762 482,754 482,749 481,736 479,732 475,737 473,740 473,743 478,753 481,757 483,761 484,763 Z" />
  <path
    id="mouth1"
    class="line"
    d="M 500,834 C 520,832 545,816 561,826 574,831 591,840 604,829 614,818 618,801 633,794 645,784 662,793 675,785 691,774 694,753 701,736 707,724 692,719 689,732 690,748 694,769 678,780 664,793 643,777 629,789 615,798 608,811 597,822 586,829 571,821 559,818 540,812 527,821 500,823 Z M 500,834 C 480,832 455,816 439,826 426,831 409,840 396,829 386,818 382,801 367,794 355,784 338,793 325,785 309,774 306,753 299,736 293,724 308,719 311,732 310,748 306,769 322,780 336,793 357,777 371,789 385,798 392,811 403,822 414,829 429,821 441,818 460,812 473,821 500,823 Z" />
</svg>
