<svg xmlns='http://www.w3.org/2000/svg' version='1.1' width="400" height="400" viewBox="0 0 400 400">
	<style>.icon{display:none;}.icon:target{display:block;}</style>
	<!--#393939-->
	<path id="niconico" class="icon" d="M 77.1,152 V 283 C 77.1,295 87,304 98.7,304 H 125 L 139,327 C 140,329 141,329 143,329 145,329 147,329 147,327 L 161,304 H 237 L 251,327 C 251,329 254,329 256,329 257,329 259,329 260,327 L 274,304 H 303 C 314,304 323,295 323,283 V 152 C 323,141 314,132 303,132 H 220 L 268,83.6 256,71.8 200,127 145,71.8 133,83.6 180,132 H 99.4 C 87,131 77.1,141 77.1,153 Z"/>
	<!--#0095f9-->
	<path id="pixiv" class="icon" d="M 143,316 V 271 C 224,302 338,282 343,180 334,43 154,40.6 57.5,145 L 75.5,174 C 82.7,174 83.6,166 80.5,158 86.2,145 101,131 112,124 V 316 C 103,318 94.5,322 101,329 H 154 C 160,322 151,318 143,316 Z M 143,253 V 109 C 200,71.9 303,78.2 304,181 299,266 215,282 143,253 Z"/>
	<!--#00acee-->
	<path id="twitter" class="icon" d="M 149,312 C 253,312 309,225 309,152 309,149 309,146 309,144 320,136 330,126 337,115 327,120 316,122 304,124 316,116 325,105 330,92.1 319,98.7 306,103 293,106 283,95.4 269,87.9 253,87.9 222,87.9 196,113 196,145 196,149 196,154 198,157 150,155 110,133 81.3,98.7 76.5,106 73.8,116 73.8,127 73.8,146 83.7,164 98.5,174 89.5,174 80.9,171 73.2,167 73.2,167 73.2,167 73.2,168 73.2,194 93,218 118,223 114,224 108,225 104,225 99.6,225 96.3,224 93,224 101,246 122,263 146,263 126,278 102,287 75.7,287 71.2,287 66.7,287 62.3,287 87.2,302 117,312 149,312 Z"/>
</svg>
