<?xml version="1.0" encoding="UTF-8" standalone="no"?>
<svg xmlns="http://www.w3.org/2000/svg" xmlns:svg="http://www.w3.org/2000/svg" version="1.1" width="0" height="0" viewBox="0 0 1000 1000">
	<symbol id="RulerIcon" viewBox="0 0 100 100">
		<path d="" />
	</symbol>
	<symbol id="MoonCancerIcon" viewBox="0 0 100 100">
		<path d="" />
	</symbol>
	<symbol id="AvengerIcon" viewBox="0 0 100 100">
		<path d="" />
	</symbol>
	<symbol id="SaberIcon" viewBox="0 0 100 100">
		<path
			d="M 50,11.1 C 46.5,14.1 45.5,16.6 43.5,21.6 L 42.5,25.6 V 46.6 C 42,49.6 41,54.6 38.5,54.6 38,55.1 38.5,57.1 38.5,57.1 42.5,58.6 41,58.1 43.5,60.6 44,61.1 43.5,62.6 43.5,63.1 43,63.1 42,62.6 41.5,62.6 41,62.6 38,62.6 38,62.1 37.5,62.1 36.5,61.1 36,60.6 L 33.5,58.1 C 33,58.1 30.5,58.6 30.5,58.6 L 30,61.6 C 32,64.1 34.5,65.6 37,67.1 L 36.5,67.6 C 34,66.6 30.5,63.6 29,62.6 L 26.5,63.6 V 67.6 C 26.5,68 33,72.5 35,73 37.5,73.5 41.5,73.5 41.5,73.5 L 42.5,71.5 C 42.5,71 46,70 46.5,72 46.5,72 46,73.5 45,73.5 V 75.5 C 45,75.5 46,75.5 46.5,76.5 47,77 47,77.5 47,78.5 V 82.5 C 47,83 46.5,83.5 46,83.5 45,85.5 45,84.5 45,85.5 45.5,88.1 47,89.1 50,89.1 53,89.1 54.5,88.1 55,85.5 55,84.5 55,85.5 54,83.5 53.5,83.5 53,83 53,82.5 V 78.5 C 53,77.5 53,77 53.5,76.5 54,75.5 55,75.5 55,75.5 V 73.5 C 54,73.5 53.5,72 53.5,72 54,70 57.5,71 57.5,71.5 L 58.5,73.5 C 58.5,73.5 62.5,73.5 65,73 67,72.5 73.5,68 73.5,67.6 V 63.6 L 71,62.6 C 69.5,63.6 66,66.6 63.5,67.6 L 63,67.1 C 65.5,65.6 68,64.1 70,61.6 L 69.5,58.6 C 69.5,58.6 67,58.1 66.5,58.1 L 64,60.6 C 63.5,61.1 62.5,62.1 62,62.1 62,62.6 59,62.6 58.5,62.6 58,62.6 57,63.1 56.5,63.1 56.5,62.6 56,61.1 56.5,60.6 59,58.1 57.5,58.6 61.5,57.1 61.5,57.1 62,55.1 61.5,54.6 59,54.6 58,49.6 57.5,46.6 V 25.6 L 56.5,21.6 C 54.5,16.6 53.5,14.1 50,11.1 Z M 50,35.6 51,37.6 51.5,53.1 C 52.5,53.6 52,55.1 52,56.1 L 50.5,58.1 V 63.6 C 52,62.6 51.5,66.6 50,67.1 48.5,66.6 48,62.6 49.5,63.6 V 58.1 L 48,56.1 C 48,55.1 47.5,53.6 48.5,53.1 L 49,37.6 Z" />
	</symbol>
	<symbol id="LancerIcon" viewBox="0 0 100 100">
		<path
			d="M 15.6,15.9 29.6,42.3 C 30.6,43.3 31.6,47.3 31.6,47.3 L 38.6,46.3 43.6,49.3 V 54.3 C 48.6,52.3 51.6,52.3 51.6,52.3 51.6,52.3 52.6,48.3 53.6,44.3 L 48.6,43.3 46.6,39.3 V 31.5 C 46.6,31.5 43.6,30.8 41.6,29.3 Z M 34.6,34.3 41.6,38.3 C 41.6,38.3 43.6,43.3 47.6,47.3 43.6,43.3 38.6,41.3 38.6,41.3 Z M 47.6,55.3 46.6,57.3 C 50.6,56.3 51.6,57.3 51.6,57.3 58.6,63.3 72.6,75.3 72.6,75.3 L 74.6,80.3 84.6,84.3 80.6,74.3 75.6,72.3 C 75.6,72.3 63.6,59.3 57.6,52.3 57.6,52.3 55.6,50.3 56.6,47.3 H 54.6 C 54.6,47.3 53.6,50.3 53.6,53.3 49.6,54.3 47.6,55.3 47.6,55.3 Z" />
	</symbol>
	<symbol id="ArcherIcon" viewBox="0 0 100 100">
		<path
			d="M 56.6,12.4 C 54.6,15.6 51.6,19.7 42.6,19.7 35.6,24.6 32.6,33.1 29.6,40.3 32.6,42.3 32.6,44.4 32.6,44.4 32.6,45 32.6,47.6 32.6,48.1 30.6,47.8 28.6,48.4 27.6,47.2 27.6,46.4 26.6,42.4 26.6,42.4 L 11.6,50 26.6,57.8 C 26.6,57.8 27.6,53.7 27.6,52.9 28.6,51.8 30.6,52.3 32.6,52 32.6,52.6 32.6,55.1 32.6,55.7 32.6,55.7 32.6,57.9 29.6,59.7 32.6,67 35.6,75.6 42.6,80.5 51.6,80.5 54.6,84.6 56.6,87.6 L 59.6,85.3 C 59.6,83.2 57.6,82.2 55.6,81.1 59.6,80.7 60.6,83.9 60.6,84 L 63.6,80.8 C 60.6,78.3 57.6,78.1 54.6,76.8 L 66.6,51.5 C 70.6,53.8 70.6,53.6 71.6,57.3 H 75.6 V 52.8 L 76.6,57.3 H 79.6 L 80.6,52.8 V 57.3 H 88.6 L 83.6,50 88.6,42.9 H 80.6 V 47.2 L 79.6,42.9 H 76.6 L 75.6,47.2 V 42.9 H 71.6 C 70.6,46.5 70.6,46.3 66.6,48.5 L 54.6,23.2 C 57.6,22 60.6,21.8 63.6,19.3 L 60.6,16.2 C 60.6,16.3 59.6,19.4 55.6,18.9 57.6,17.8 59.6,17.1 59.6,14.9 Z M 51.6,23.2 64.6,48.5 H 39.6 V 40.3 C 39.6,33.6 43.6,27.4 47.6,24.1 Z M 24.6,48.1 C 24.6,48.2 25.6,48.8 26.6,50 24.6,52.4 24.6,52.7 21.6,50 V 50 50 50 50 C 22.6,48.7 23.6,48.1 24.6,48.1 Z M 39.6,51.5 H 64.6 L 51.6,76.8 47.6,76.1 C 43.6,72.6 39.6,66.5 39.6,59.7 Z" />
	</symbol>
	<symbol id="RiderIcon" viewBox="0 0 100 100">
		<path
			d="M 48.9,12.4 V 19 C 54.3,21.4 56.4,23.7 59.7,27.8 64.4,36.4 66.5,42.2 67.2,48 L 74.1,48.4 C 73.5,41.1 69.3,31.6 64.2,23.8 63.8,23.3 60.1,25.1 59.8,24.8 59.5,24.4 62.7,21.6 62.4,21.2 L 60.5,19.1 C 60.1,18.9 57,22 56.8,21.7 56.4,21.3 58.9,17.5 58.6,17.3 L 56.5,15.7 C 56.2,15.5 53.5,19.3 53.2,19.2 52.8,19 54.7,14.7 54.4,14.5 52.6,13.6 50.9,12.9 48.9,12.4 Z M 38.6,16 C 38.1,17.5 39.8,21.7 40.8,22.1 43.9,23.7 43.3,25.4 43.2,27 36.1,27 31.2,32.3 29.2,38.9 25.7,39.6 23.7,39.9 21.1,39.9 19.5,42.7 19.5,45 20.6,46.4 24.9,47 26.9,50.5 29.3,50.4 31.8,46.4 34.1,44.9 36.4,43.9 36.4,43.9 37.4,43.6 40.8,45 42.4,47.2 43.2,49.6 41.6,51.8 40.1,55.6 36.2,59.6 33.2,63.7 30.9,66.8 31.6,69.2 30.2,75.5 33.1,75.7 34.8,76.4 35.7,77.3 37.3,75.6 37.1,70.7 37.1,65.6 43.5,59.4 51.9,51.9 52.5,48.6 52.5,48.6 54.4,45.6 54.5,39.8 56.7,41.1 55.3,48.8 55.3,48.8 53.7,51.9 56.4,49.8 39.7,66.3 39.5,72.8 38.8,74.9 38.1,77.3 L 36.4,78.6 C 37,85.9 39.4,86.4 41.7,87.7 43.3,86 48.5,83.1 52.8,81.9 A 17,17 0 0 1 47.8,69.8 17,17 0 0 1 64.8,52.7 17,17 0 0 1 65.1,52.7 C 66.4,48.2 63.8,39.5 60.8,33.2 57.6,26.7 54,23.1 48.9,20.5 45.6,20.7 42.2,18.5 38.6,16 Z M 38.4,22.1 C 36.2,24.1 31.2,26.4 30.4,27.7 27.3,33.1 25.7,34.7 22,38.4 L 27.9,37.7 C 32.2,29.4 33,28.1 41.4,25.4 41.4,25.4 41.2,24.4 40.6,23.8 40.6,23.8 39.2,23.9 38.4,22.1 Z M 39,31.4 C 40.2,31.4 41.1,32.2 41.1,33.2 41.1,34.3 40.2,35.1 39,35.1 37.8,35.1 36.9,34.3 36.9,33.2 36.9,32.2 37.8,31.4 39,31.4 Z M 64.8,54.6 C 56.4,54.6 49.6,61.4 49.6,69.8 49.6,78.3 56.4,85 64.8,85 73.2,85 80.1,78.3 80.1,69.8 80.1,61.4 73.2,54.6 64.8,54.6 Z M 63.3,58.2 V 65.8 C 62.9,66.1 62.6,66.2 62.4,66.4 L 55.6,62.6 C 57.4,60.1 60.2,58.7 63.3,58.2 Z M 66.6,58.2 C 69.5,58.7 72.2,60.2 74.1,62.6 L 67.4,66.4 C 67.2,66.2 66.8,66.1 66.6,65.8 Z M 54.1,65.4 60.7,69.2 C 60.6,69.5 60.6,69.8 60.6,70.2 L 54,74.1 C 52.8,71.2 52.8,68.1 54.1,65.4 Z M 75.7,65.4 C 76.8,68.3 76.8,71.4 75.8,74.1 L 69.1,70.3 V 69.2 Z M 62.2,73.1 C 62.6,73.4 62.9,73.6 63.3,73.7 V 81.4 C 60.2,81 57.4,79.4 55.6,76.9 Z M 67.5,73.1 74.2,76.9 C 72.3,79.4 69.5,81 66.6,81.4 V 73.7 C 67,73.6 67.3,73.4 67.5,73.1 Z" />
	</symbol>
	<symbol id="CasterIcon" viewBox="0 0 100 100">
		<path
			d="M 83,17.1 C 78.4,17.1 75.5,20.1 71.6,22.1 66.1,19.1 59.3,19.1 53.8,22.1 H 51.6 C 48.9,21.1 43.6,18.1 43.6,18.1 L 47.3,26.1 V 29.1 C 44.9,34.1 44.8,39.1 46.8,44.1 L 46.7,46.1 C 41.4,46.1 41,47.1 41.1,53.1 39.3,55.1 37.8,55.1 36.3,55.1 L 34.8,59.1 C 31.3,63.1 19.8,75.1 17.4,78.1 16.1,80.1 18,82.1 18,82.1 18,82.1 19.5,84.1 21.5,82.1 25,80.1 36.4,69.1 40.7,65.1 L 44.9,64.1 C 45.1,62.1 45.1,60.1 47.2,59.1 52.6,59.1 53.5,58.1 53.9,53.1 H 56.1 C 60.8,55.1 66.1,55.1 70.7,53.1 L 73.3,52.1 81.5,56.1 C 81.5,56.1 79.2,51.1 77.8,48.1 V 46.1 C 81.2,41.1 81.3,34.1 78,28.1 79.6,24.1 82.7,21.1 83,17.1 Z M 73.8,26.1 C 72.9,30.1 68.7,35.1 68.7,35.1 70,35.1 72.4,36.1 74.8,38.1 73.5,39.1 70.9,39.1 68.5,40.1 70.8,43.1 73.7,49.1 73.7,49.1 73.7,49.1 66.6,46.1 64,45.1 64.4,47.1 63.4,48.1 62.9,49.1 61.5,48.1 60.6,46.1 60.5,44.1 57.9,45.1 55.3,47.1 52.3,48.1 52.9,45.1 54.6,42.1 56.1,39.1 54,39.1 52.1,38.1 50.4,37.1 51.8,36.1 53.2,35.1 55.1,36.1 54,33.1 51.1,26.1 51.1,26.1 51.1,26.1 57.2,29.1 59.9,31.1 60.4,29.1 60.6,26.1 62.2,25.1 63.5,27.1 64.6,30.1 64.4,31.1 64.4,31.1 70.2,27.1 73.8,26.1 Z M 50.4,49.1 C 50.8,51.1 51.1,52.1 49.6,54.1 49.6,54.1 46.7,53.1 45.3,54.1 46.4,53.1 46.2,50.1 46.2,50.1 48,49.1 48.8,49.1 50.4,49.1 Z" />
	</symbol>
	<symbol id="AssassinIcon" viewBox="0 0 100 100">
		<path
			d="M 31.8,22.5 C 27.1,22.7 24,32.5 23.9,33.6 27.2,42.4 27.5,49.8 23.3,54.6 20.8,57.4 27,61.2 28.8,63.9 33.8,61.8 35.5,63 38.4,66.8 38,70.4 39,76.9 41.7,76.9 41.7,76.9 41.2,72.3 41,70.4 41,70.1 43.1,70.7 43.3,70.7 43.1,76.9 46.2,77.2 46.2,77.2 46.2,77.2 45.8,73.2 46,71.2 L 48.1,71.4 C 48,77.3 50,77.5 50,77.5 50,77.5 52.1,77.3 52,71.4 L 54.1,71.2 C 54.3,73.2 53.8,77.2 53.8,77.2 53.8,77.2 57,76.9 56.8,70.7 57,70.7 59,70.1 59,70.4 58.8,72.3 58.3,76.9 58.3,76.9 61,76.9 62,70.4 61.7,66.8 64.5,63 66.2,61.8 71.2,63.9 73,61.2 79.2,57.4 76.7,54.6 72.5,49.8 72.9,42.4 76.1,33.6 76,32.5 73,22.7 68.2,22.5 68.1,22.5 67.7,22.5 67.3,22.7 65.7,22.9 64.4,24.3 62.4,24.6 61.7,25.2 61.5,29.4 61.5,29.4 61.5,34.4 56.3,38.6 50,38.6 43.7,38.6 38.6,34.4 38.6,29.4 38.6,29.4 38.4,25.2 37.6,24.6 35.6,24.3 34.3,22.9 32.7,22.7 32.4,22.5 32,22.5 31.8,22.5 Z M 40,27.9 C 39.9,28.2 39.9,28.7 39.9,29 39.9,33.5 44.6,37.1 50,37.1 55.5,37.1 60.1,33.5 60.1,29 60.1,28.7 60.1,28.2 60,27.9 57.1,29 53.7,29.7 50,29.7 46.3,29.7 42.9,29 40,27.9 Z M 32.9,45.3 C 33.2,45.3 33.4,45.3 33.7,45.4 38.5,47.4 39.8,47 41.8,47 46.1,51.4 40.6,50.6 36.5,51.6 35,50.8 31.7,49.3 31.3,46.9 31.8,46.3 31.7,45.3 32.9,45.3 Z M 67.1,45.3 C 68.3,45.3 68.2,46.3 68.7,46.9 68.3,49.3 65,50.8 63.5,51.6 59.5,50.6 53.9,51.4 58.3,47 60.2,47 61.6,47.4 66.3,45.4 66.7,45.3 66.9,45.3 67.1,45.3 Z M 47.8,55.5 C 47.7,58 47.7,61.3 47.6,62.1 46.6,62.1 46.5,62.3 45.9,60.6 46.5,58.7 47.1,57.1 47.8,55.5 Z M 52.2,55.5 C 53,57.1 53.5,58.7 54.2,60.6 53.5,62.3 53.4,62.1 52.4,62.1 52.3,61.3 52.3,58 52.2,55.5 Z" />
	</symbol>
	<symbol id="ForeignerIcon" viewBox="0 0 100 100">
		<path
			d="M 21.3,80.5 38.6,69.3 36.8,79.1 43.2,71.2 47.4,91.3 51.7,71.1 58.2,79 56.6,69.2 73.7,80.5 62.4,63.4 72.2,65 64.3,58.5 84.4,54.4 64.3,50.1 72.3,43.9 62.5,45.4 86.3,15.5 56.5,39.4 58.1,29.6 51.8,37.5 47.4,17.5 43.3,37.6 36.8,29.6 38.5,39.5 21.4,28.2 32.7,45.3 22.8,43.6 30.8,50.1 10.5,54.4 30.6,58.6 22.7,65 32.6,63.3 Z M 34.9,67 40,60 42.6,59.2 41.9,61.8 Z M 47.4,72.2 46.1,63.5 47.4,61.2 48.7,63.4 Z M 29.6,54.4 38.4,53.1 40.7,54.4 38.3,55.7 Z M 53.2,61.7 52.3,59.2 54.9,60 59.7,66.5 Z M 40.2,48.7 35.4,42.2 41.9,47 42.6,49.6 Z M 54.2,54.4 56.6,53 65.3,54.5 56.6,55.6 Z M 47.4,47.6 46.2,45.3 47.4,36.6 48.9,45.2 Z M 52.3,49.6 53.1,46.9 60.2,41.7 55,48.8 Z" />
	</symbol>
	<symbol id="PretenderIcon" viewBox="0 0 100 100">
		<path d="" />
	</symbol>
	<symbol id="AlteregoIcon" viewBox="0 0 100 100">
		<path d="" />
	</symbol>
	<symbol id="BerserkerIcon" viewBox="0 0 100 100">
		<path d="" />
	</symbol>
	<symbol id="ShielderIcon" viewBox="0 0 100 100">
		<path d="" />
	</symbol>
	<symbol id="ChaldeaIcon" viewBox="0 0 1000 1000">
		<path id="chaldea" d="M 568,137 C 561,163 536,152 523,183 516,199 523,198 518,211 518,211 517,211 517,211 482,211 448,217 417,229 429,218 437,209 442,199 446,184 446,168 445,146 439,172 415,183 407,199 401,212 408,215 406,233 371,248 339,269 312,296 326,277 338,264 337,239 337,219 329,200 318,171 321,208 299,232 297,254 293,284 308,274 308,301 264,347 235,407 229,475 218,479 210,489 210,501 210,513 218,523 229,527 232,557 239,585 250,611 231,650 231,629 217,657 206,683 228,716 207,755 234,727 248,710 258,689 266,671 261,650 255,624 269,654 288,681 311,705 310,725 297,718 300,747 302,769 324,793 321,829 332,801 340,782 340,762 341,743 334,731 325,718 350,740 378,758 410,770 410,787 404,790 410,802 418,817 442,828 448,854 449,832 449,816 445,802 441,793 434,785 424,776 454,786 485,791 517,791 519,791 520,791 522,791 526,803 520,802 526,817 539,848 564,837 571,863 574,839 570,829 566,817 560,807 542,809 524,791 552,790 580,785 607,777 626,786 621,792 636,801 651,807 670,794 690,807 679,792 667,782 656,776 645,772 631,773 611,775 635,767 658,756 680,741 711,741 704,750 720,749 741,747 743,737 777,737 760,725 735,724 723,721 711,720 700,731 683,739 690,734 698,728 705,722 705,722 705,723 705,723 706,722 706,721 706,721 717,712 727,702 736,691 736,692 735,692 735,693 758,690 754,690 767,685 779,679 781,661 796,650 779,650 773,651 763,654 755,659 743,671 736,690 H 735 C 727,699 718,708 708,716 717,700 727,699 735,678 736,664 738,647 737,633 728,655 712,665 709,671 699,689 704,704 705,719 682,738 656,754 628,765 638,759 648,750 651,747 656,746 665,736 667,733 683,714 669,698 677,677 665,698 649,703 636,725 630,742 637,751 625,766 596,778 565,784 533,786 558,778 577,774 583,769 609,752 607,731 618,712 601,731 579,727 559,746 550,759 546,773 529,786 527,786 524,786 522,786 485,786 449,779 417,766 449,763 455,770 463,767 508,761 506,732 528,712 499,732 476,721 455,732 436,748 442,758 416,765 373,748 336,721 306,686 350,697 351,714 369,716 413,720 434,699 458,693 420,702 410,675 371,673 352,671 339,689 306,686 269,643 245,588 239,528 253,527 264,515 264,501 264,487 253,475 239,474 241,453 246,432 252,412 264,376 283,343 307,315 337,314 350,330 368,328 407,326 417,299 455,308 431,302 410,281 366,285 349,287 347,302 308,313 337,280 374,253 416,237 438,244 433,254 452,269 473,280 496,269 525,289 503,269 505,240 460,234 453,231 447,237 419,235 451,223 486,216 522,216 524,216 525,216 527,216 543,229 547,242 556,255 576,274 598,270 615,289 604,270 606,249 580,232 574,228 557,224 533,216 564,217 594,224 622,234 634,249 627,258 633,276 646,298 662,303 674,324 666,303 680,287 664,268 662,265 653,255 648,254 644,251 633,241 623,235 652,245 678,261 702,280 701,296 695,312 706,330 709,336 725,346 734,368 735,354 733,337 732,323 723,300 712,301 704,281 714,290 723,299 732,309 738,329 751,342 760,347 770,350 776,351 793,351 778,340 776,322 764,316 751,311 754,311 734,308 719,292 703,277 685,265 699,272 709,281 720,280 732,277 757,276 774,264 740,264 738,254 717,252 701,251 707,259 678,260 657,245 633,234 608,226 628,228 642,229 653,225 664,219 676,209 687,194 667,207 648,194 633,200 617,209 623,215 603,224 577,216 548,211 520,211 538,192 556,194 563,183 567,171 571,161 568,137 Z M 252,412 C 282,396 287,413 312,411 348,395 356,364 391,353 360,355 335,339 299,360 288,367 281,381 252,412 Z M 204,246 C 225,285 203,318 214,344 228,373 228,349 248,393 256,358 264,334 255,312 245,291 231,274 204,246 Z M 524,319 C 423,319 342,400 342,501 342,602 423,683 524,683 602,683 671,633 696,559 715,546 734,537 753,544 737,530 720,531 702,539 702,536 703,534 703,531 H 705 C 704,531 704,530 703,530 705,520 706,511 706,501 706,400 625,319 524,319 Z M 524,324 C 622,324 701,403 701,501 701,510 700,519 699,528 627,496 607,622 502,545 601,656 643,528 698,530 697,534 697,537 696,541 665,556 633,587 606,598 560,611 466,586 484,472 492,424 564,369 635,472 623,372 561,365 523,365 393,374 390,488 391,501 399,662 555,637 588,625 627,611 661,587 689,564 663,632 597,678 524,678 426,678 347,599 347,501 347,403 426,324 524,324 Z M 523,331 C 430,332 355,407 354,500 354,593 430,670 523,671 584,671 638,638 669,589 649,605 623,622 602,627 579,642 552,650 523,650 441,649 375,582 375,501 376,419 441,353 523,352 605,352 672,419 673,501 673,506 673,510 672,515 L 693,518 C 694,512 694,506 694,500 693,407 616,331 523,331 Z M 255,589 C 284,620 291,634 302,641 338,662 363,646 394,648 359,637 351,606 315,590 290,588 285,605 255,589 Z" />
	</symbol>
</svg>
